<svg viewBox="0 0 1200 800" xmlns="http://www.w3.org/2000/svg">
  <defs>
    <style>
      .title { font-family: Arial, sans-serif; font-size: 16px; font-weight: bold; fill: #333; }
      .subtitle { font-family: Arial, sans-serif; font-size: 12px; fill: #666; }
      .label { font-family: Arial, sans-serif; font-size: 10px; fill: #555; }
      .stage-title { font-family: Arial, sans-serif; font-size: 14px; font-weight: bold; fill: #fff; }
    </style>
  </defs>
  
  <!-- ุงูุฎูููุฉ -->
  <rect width="1200" height="800" fill="#f5f5f5"/>
  <text x="600" y="40" class="title" text-anchor="middle">ูุฑุงุญู ุชุณุฌูู ุงูููุฑุฏ</text>
  
  <!-- ูุคุดุฑ ุงูุชูุฏู -->
  <line x1="200" y1="80" x2="1000" y2="80" stroke="#e0e0e0" stroke-width="4"/>
  <circle cx="200" cy="80" r="15" fill="#1976d2" stroke="#fff" stroke-width="3"/>
  <text x="200" y="85" style="fill: #fff; font-size: 12px; font-weight: bold;" text-anchor="middle">1</text>
  <circle cx="600" cy="80" r="15" fill="#1976d2" stroke="#fff" stroke-width="3"/>
  <text x="600" y="85" style="fill: #fff; font-size: 12px; font-weight: bold;" text-anchor="middle">2</text>
  <circle cx="1000" cy="80" r="15" fill="#1976d2" stroke="#fff" stroke-width="3"/>
  <text x="1000" y="85" style="fill: #fff; font-size: 12px; font-weight: bold;" text-anchor="middle">3</text>
  
  <!-- ุงููุฑุญูุฉ 1: ุงูุจูุงูุงุช ุงูุดุฎุตูุฉ -->
  <rect x="50" y="120" width="300" height="600" rx="8" fill="#e3f2fd" stroke="#1976d2" stroke-width="3"/>
  <text x="200" y="150" class="stage-title" text-anchor="middle">ุงููุฑุญูุฉ 1: ุงูุจูุงูุงุช ุงูุดุฎุตูุฉ</text>
  
  <!-- ุญููู ุดุฎุตูุฉ -->
  <rect x="70" y="170" width="260" height="150" rx="4" fill="#fff" stroke="#e0e0e0" stroke-width="2"/>
  <text x="90" y="195" class="subtitle">ุญููู ุดุฎุตูุฉ</text>
  <text x="90" y="215" class="label">โข ุงูุงุณู ุงููุงูู</text>
  <text x="90" y="235" class="label">โข ุฑูู ุงูุฌูุงู</text>
  <text x="90" y="255" class="label">โข ุงูุจุฑูุฏ ุงูุฅููุชุฑููู</text>
  <text x="90" y="275" class="label">โข ุฑูู ุงููููุฉ ุงููุทููุฉ</text>
  <text x="90" y="295" class="label">โข ุชุงุฑูุฎ ุงููููุงุฏ</text>
  
  <!-- ุฑูุน ุงููุณุชูุฏุงุช -->
  <rect x="70" y="340" width="260" height="150" rx="4" fill="#fff8e1" stroke="#ffa000" stroke-width="2"/>
  <text x="90" y="365" class="subtitle">ุฑูุน ุงููุณุชูุฏุงุช</text>
  <text x="90" y="385" class="label">๐ ุตูุฑุฉ ุงููููุฉ (ุงููุฌู ุงูุฃูุงูู)</text>
  <text x="90" y="405" class="label">๐ ุตูุฑุฉ ุงููููุฉ (ุงููุฌู ุงูุฎููู)</text>
  <text x="90" y="425" class="label">๐ ุตูุฑุฉ ุงูุฑุฎุตุฉ</text>
  <text x="90" y="445" class="label">ุงูุญุฏ ุงูุฃูุตู: 5 ููุฌุง ููู ุตูุฑุฉ</text>
  <rect x="90" y="460" width="240" height="20" rx="4" fill="#ff9800"/>
  <text x="210" y="475" style="fill: #fff; font-size: 10px; font-weight: bold;" text-anchor="middle">ุฑูุน ุงููููุงุช</text>
  
  <!-- ูุนูููุงุช ุงูุจูู -->
  <rect x="70" y="510" width="260" height="150" rx="4" fill="#fff" stroke="#e0e0e0" stroke-width="2"/>
  <text x="90" y="535" class="subtitle">ูุนูููุงุช ุงูุจูู</text>
  <text x="90" y="555" class="label">โข ุงุณู ุงูุจูู</text>
  <text x="90" y="575" class="label">โข ุฑูู ุงูุญุณุงุจ ุงูุจููู</text>
  <text x="90" y="595" class="label">โข ุฑูู ุงูุขูุจุงู IBAN</text>
  <text x="90" y="615" class="label">โข ุงุณู ุตุงุญุจ ุงูุญุณุงุจ</text>
  
  <rect x="90" y="680" width="240" height="30" rx="6" fill="#1976d2"/>
  <text x="210" y="700" style="fill: #fff; font-size: 12px; font-weight: bold;" text-anchor="middle">ุงูุชุงูู โ</text>
  
  <!-- ุงููุฑุญูุฉ 2: ูุนูููุงุช ุงูุณูุงุฑุฉ -->
  <rect x="400" y="120" width="300" height="600" rx="8" fill="#e8f5e9" stroke="#66bb6a" stroke-width="3"/>
  <text x="550" y="150" class="stage-title" text-anchor="middle">ุงููุฑุญูุฉ 2: ูุนูููุงุช ุงูุณูุงุฑุฉ</text>
  
  <!-- ุจูุงูุงุช ุงูุณูุงุฑุฉ -->
  <rect x="420" y="170" width="260" height="150" rx="4" fill="#fff" stroke="#e0e0e0" stroke-width="2"/>
  <text x="440" y="195" class="subtitle">ุจูุงูุงุช ุงูุณูุงุฑุฉ</text>
  <text x="440" y="215" class="label">โข ุฑูู ุงูููุญุฉ</text>
  <text x="440" y="235" class="label">โข ุงููุงุฑูุฉ (ุชูููุชุงุ ููููุฏุงู...)</text>
  <text x="440" y="255" class="label">โข ุงูููุฏูู (ูุงูุฑูุ ุฅููุชุฑุง...)</text>
  <text x="440" y="275" class="label">โข ุณูุฉ ุงูุตูุน</text>
  <text x="440" y="295" class="label">โข ุงููุฆุฉ (ุณูุฏุงูุ SUVุ ุจุงุตุ ูุงูุฌุฑู)</text>
  
  <!-- ูุณุชูุฏุงุช ุงูุณูุงุฑุฉ -->
  <rect x="420" y="340" width="260" height="150" rx="4" fill="#fff8e1" stroke="#ffa000" stroke-width="2"/>
  <text x="440" y="365" class="subtitle">ูุณุชูุฏุงุช ุงูุณูุงุฑุฉ</text>
  <text x="440" y="385" class="label">๐ ุตูุฑุฉ ุงูุงุณุชูุงุฑุฉ (ุงููุฌููู)</text>
  <text x="440" y="405" class="label">๐ ุตูุฑุฉ ุงูุชุฃููู ุงูุณุงุฑู</text>
  <text x="440" y="425" class="label">ุชุงุฑูุฎ ุงูุชูุงุก ุงูุงุณุชูุงุฑุฉ</text>
  <text x="440" y="445" class="label">ุชุงุฑูุฎ ุงูุชูุงุก ุงูุชุฃููู</text>
  <rect x="440" y="460" width="240" height="20" rx="4" fill="#ff9800"/>
  <text x="560" y="475" style="fill: #fff; font-size: 10px; font-weight: bold;" text-anchor="middle">ุฑูุน ุงููููุงุช</text>
  
  <!-- ุตูุฑ ุงูุณูุงุฑุฉ -->
  <rect x="420" y="510" width="260" height="150" rx="4" fill="#fff3e0" stroke="#ff6f00" stroke-width="2"/>
  <text x="440" y="535" class="subtitle">ุตูุฑ ุงูุณูุงุฑุฉ</text>
  <text x="440" y="555" class="label">๐ธ 4 ุตูุฑ ุฎุงุฑุฌูุฉ:</text>
  <text x="450" y="575" class="label">- ุงููุฌู ุงูุฃูุงูู</text>
  <text x="450" y="595" class="label">- ุงููุฌู ุงูุฎููู</text>
  <text x="450" y="615" class="label">- ุงูุฌุงูุจ ุงูุฃููู ูุงูุฃูุณุฑ</text>
  <text x="440" y="635" class="label">๐ธ 4 ุตูุฑ ุฏุงุฎููุฉ (ุงูููุตูุฑุฉ)</text>
  
  <rect x="440" y="680" width="110" height="30" rx="6" fill="#9e9e9e"/>
  <text x="495" y="700" style="fill: #fff; font-size: 12px; font-weight: bold;" text-anchor="middle">โ ุงูุณุงุจู</text>
  
  <rect x="560" y="680" width="110" height="30" rx="6" fill="#66bb6a"/>
  <text x="615" y="700" style="fill: #fff; font-size: 12px; font-weight: bold;" text-anchor="middle">ุงูุชุงูู โ</text>
  
  <!-- ุงููุฑุญูุฉ 3: ุงููุฑุงุฌุนุฉ -->
  <rect x="750" y="120" width="300" height="600" rx="8" fill="#f3e5f5" stroke="#7b1fa2" stroke-width="3"/>
  <text x="900" y="150" class="stage-title" text-anchor="middle">ุงููุฑุญูุฉ 3: ุงููุฑุงุฌุนุฉ ูุงูุฅุฑุณุงู</text>
  
  <!-- ููุฎุต ุงูุจูุงูุงุช -->
  <rect x="770" y="170" width="260" height="200" rx="4" fill="#fff" stroke="#e0e0e0" stroke-width="2"/>
  <text x="790" y="195" class="subtitle">ููุฎุต ุงูุจูุงูุงุช</text>
  <text x="790" y="215" class="label">โ ุงูุจูุงูุงุช ุงูุดุฎุตูุฉ ูุงููุฉ</text>
  <text x="790" y="235" class="label">โ ุงููุณุชูุฏุงุช ุงูุดุฎุตูุฉ ูุฑููุนุฉ</text>
  <text x="790" y="255" class="label">โ ูุนูููุงุช ุงูุจูู ูุญููุธุฉ</text>
  <text x="790" y="275" class="label">โ ุจูุงูุงุช ุงูุณูุงุฑุฉ ูุงููุฉ</text>
  <text x="790" y="295" class="label">โ ูุณุชูุฏุงุช ุงูุณูุงุฑุฉ ูุฑููุนุฉ</text>
  <text x="790" y="315" class="label">โ ุตูุฑ ุงูุณูุงุฑุฉ ูุฑููุนุฉ (8 ุตูุฑ)</text>
  <rect x="790" y="330" width="240" height="30" rx="4" fill="#2196f3"/>
  <text x="910" y="350" style="fill: #fff; font-size: 11px; font-weight: bold;" text-anchor="middle">๐๏ธ ูุนุงููุฉ ุงูููู ุงููุงูู</text>
  
  <!-- ุดุฑูุท ุงูุฎุฏูุฉ -->
  <rect x="770" y="390" width="260" height="150" rx="4" fill="#fafafa" stroke="#bdbdbd" stroke-width="2"/>
  <text x="790" y="415" class="subtitle">ุดุฑูุท ุงูุฎุฏูุฉ</text>
  <text x="790" y="435" class="label">ูุฑุฌู ูุฑุงุกุฉ ุงูุดุฑูุท ูุงูุฃุญูุงู:</text>
  <rect x="790" y="450" width="240" height="70" rx="4" fill="#fff" stroke="#e0e0e0" stroke-width="1"/>
  <text x="910" y="470" class="label" text-anchor="middle">ูุต ุงูุดุฑูุท ูุงูุฃุญูุงู</text>
  <text x="910" y="490" class="label" text-anchor="middle">ูุธูุฑ ููุง...</text>
  <rect x="790" y="530" width="15" height="15" rx="2" fill="#fff" stroke="#bdbdbd" stroke-width="1"/>
  <text x="812" y="542" class="label">ุฃูุงูู ุนูู ุงูุดุฑูุท ูุงูุฃุญูุงู</text>
  
  <!-- ุฒุฑ ุงูุฅุฑุณุงู -->
  <rect x="770" y="560" width="260" height="100" rx="4" fill="#4caf50" stroke="#2e7d32" stroke-width="3"/>
  <text x="900" y="600" style="fill: #fff; font-size: 18px; font-weight: bold;" text-anchor="middle">โ ุฅุฑุณุงู ุงูุทูุจ</text>
  <text x="900" y="625" style="fill: #fff; font-size: 11px;" text-anchor="middle">ูููุฑุงุฌุนุฉ ูุงูููุงููุฉ</text>
  
  <rect x="790" y="680" width="240" height="30" rx="6" fill="#9e9e9e"/>
  <text x="910" y="700" style="fill: #fff; font-size: 12px; font-weight: bold;" text-anchor="middle">โ ุงูุณุงุจู</text>
</svg>