<svg viewBox="0 0 1400 1000" xmlns="http://www.w3.org/2000/svg">
  <defs>
    <style>
      .title { font-family: Arial, sans-serif; font-size: 16px; font-weight: bold; fill: #333; }
      .subtitle { font-family: Arial, sans-serif; font-size: 12px; fill: #666; }
      .label { font-family: Arial, sans-serif; font-size: 10px; fill: #555; }
      .stat-number { font-family: Arial, sans-serif; font-size: 24px; font-weight: bold; }
    </style>
  </defs>
  
  <!-- الخلفية -->
  <rect width="1400" height="1000" fill="#f5f5f5"/>
  
  <!-- الحاوية الرئيسية -->
  <rect x="50" y="50" width="1300" height="900" rx="8" fill="#fff" stroke="#ccc" stroke-width="2"/>
  <text x="700" y="30" class="title" text-anchor="middle">Dashboard الإدارة الرئيسي</text>
  
  <!-- الترويسة العليا -->
  <rect x="70" y="70" width="1260" height="60" rx="4" fill="#fff" stroke="#e0e0e0" stroke-width="2"/>
  <text x="90" y="95" class="title">لوحة التحكم</text>
  <text x="90" y="115" class="label">البحث + إشعارات + مستخدم</text>
  
  <!-- بطاقات الإحصائيات السريعة -->
  <text x="90" y="160" class="subtitle">بطاقات الإحصائيات السريعة</text>
  
  <!-- بطاقة 1: إجمالي الحجوزات -->
  <rect x="90" y="170" width="280" height="100" rx="6" fill="#e3f2fd" stroke="#1976d2" stroke-width="2"/>
  <text x="110" y="195" class="subtitle">إجمالي الحجوزات اليوم</text>
  <text x="110" y="230" class="stat-number" fill="#1976d2">247</text>
  <text x="110" y="250" class="label">↑ 12% عن الأمس</text>
  
  <!-- بطاقة 2: الإيرادات -->
  <rect x="390" y="170" width="280" height="100" rx="6" fill="#c8e6c9" stroke="#388e3c" stroke-width="2"/>
  <text x="410" y="195" class="subtitle">الإيرادات اليوم</text>
  <text x="410" y="230" class="stat-number" fill="#388e3c">42,150 ريال</text>
  <text x="410" y="250" class="label">↑ 8% عن الأمس</text>
  
  <!-- بطاقة 3: الحجوزات المعلقة -->
  <rect x="690" y="170" width="280" height="100" rx="6" fill="#fff3e0" stroke="#f57c00" stroke-width="2"/>
  <text x="710" y="195" class="subtitle">الحجوزات المعلقة</text>
  <text x="710" y="230" class="stat-number" fill="#f57c00">18</text>
  <text x="710" y="250" class="label">تحتاج مراجعة</text>
  
  <!-- بطاقة 4: العملاء النشطين -->
  <rect x="990" y="170" width="280" height="100" rx="6" fill="#f3e5f5" stroke="#7b1fa2" stroke-width="2"/>
  <text x="1010" y="195" class="subtitle">العملاء النشطين</text>
  <text x="1010" y="230" class="stat-number" fill="#7b1fa2">1,234</text>
  <text x="1010" y="250" class="label">↑ 5% هذا الشهر</text>
  
  <!-- الرسوم البيانية -->
  <text x="90" y="310" class="title">الرسوم البيانية</text>
  
  <!-- رسم الإيرادات -->
  <rect x="90" y="320" width="600" height="170" rx="6" fill="#e8f5e9" stroke="#66bb6a" stroke-width="2"/>
  <text x="110" y="345" class="subtitle">رسم الإيرادات - آخر 7 أيام</text>
  <line x1="120" y1="460" x2="670" y2="460" stroke="#66bb6a" stroke-width="1"/>
  <line x1="120" y1="370" x2="120" y2="460" stroke="#66bb6a" stroke-width="1"/>
  <polyline points="150,440 220,420 290,430 360,400 430,410 500,380 570,390" fill="none" stroke="#4caf50" stroke-width="3"/>
  <circle cx="150" cy="440" r="4" fill="#4caf50"/>
  <circle cx="220" cy="420" r="4" fill="#4caf50"/>
  <circle cx="290" cy="430" r="4" fill="#4caf50"/>
  <circle cx="360" cy="400" r="4" fill="#4caf50"/>
  <circle cx="430" cy="410" r="4" fill="#4caf50"/>
  <circle cx="500" cy="380" r="4" fill="#4caf50"/>
  <circle cx="570" cy="390" r="4" fill="#4caf50"/>
  
  <!-- رسم الحجوزات -->
  <rect x="710" y="320" width="600" height="170" rx="6" fill="#e3f2fd" stroke="#1976d2" stroke-width="2"/>
  <text x="730" y="345" class="subtitle">رسم الحجوزات - توزيع حسب الحالة</text>
  <circle cx="900" cy="420" r="60" fill="none" stroke="#4caf50" stroke-width="20" stroke-dasharray="283 377"/>
  <circle cx="900" cy="420" r="60" fill="none" stroke="#ff9800" stroke-width="20" stroke-dasharray="94 377" stroke-dashoffset="-283"/>
  <circle cx="900" cy="420" r="60" fill="none" stroke="#f44336" stroke-width="20" stroke-dasharray="47 377" stroke-dashoffset="-377"/>
  <text x="1050" y="390" class="label">مكتملة: 75%</text>
  <rect x="1030" y="375" width="15" height="15" fill="#4caf50"/>
  <text x="1050" y="415" class="label">قيد التنفيذ: 20%</text>
  <rect x="1030" y="400" width="15" height="15" fill="#ff9800"/>
  <text x="1050" y="440" class="label">ملغاة: 5%</text>
  <rect x="1030" y="425" width="15" height="15" fill="#f44336"/>
  
  <!-- رسم السيارات -->
  <rect x="90" y="510" width="600" height="170" rx="6" fill="#fff3e0" stroke="#ff6f00" stroke-width="2"/>
  <text x="110" y="535" class="subtitle">رسم السيارات - توزيع حسب الفئة</text>
  <rect x="150" y="580" width="80" height="80" rx="4" fill="#ff9800"/>
  <text x="190" y="665" class="label" text-anchor="middle">سيدان</text>
  <rect x="260" y="600" width="80" height="60" rx="4" fill="#ffa726"/>
  <text x="300" y="665" class="label" text-anchor="middle">SUV</text>
  <rect x="370" y="620" width="80" height="40" rx="4" fill="#ffb74d"/>
  <text x="410" y="665" class="label" text-anchor="middle">باص</text>
  <rect x="480" y="640" width="80" height="20" rx="4" fill="#ffcc80"/>
  <text x="520" y="665" class="label" text-anchor="middle">لاكجري</text>
  
  <!-- رسم المناطق -->
  <rect x="710" y="510" width="600" height="170" rx="6" fill="#f3e5f5" stroke="#9c27b0" stroke-width="2"/>
  <text x="730" y="535" class="subtitle">رسم المناطق - توزيع جغرافي</text>
  <rect x="750" y="560" width="120" height="100" rx="4" fill="#ba68c8"/>
  <text x="810" y="615" style="fill: #fff; font-size: 12px; font-weight: bold;" text-anchor="middle">الرياض</text>
  <text x="810" y="635" style="fill: #fff; font-size: 10px;" text-anchor="middle">45%</text>
  <rect x="890" y="580" width="120" height="80" rx="4" fill="#ce93d8"/>
  <text x="950" y="625" style="fill: #333; font-size: 12px; font-weight: bold;" text-anchor="middle">جدة</text>
  <text x="950" y="645" style="fill: #333; font-size: 10px;" text-anchor="middle">30%</text>
  <rect x="1030" y="600" width="120" height="60" rx="4" fill="#e1bee7"/>
  <text x="1090" y="635" style="fill: #333; font-size: 12px; font-weight: bold;" text-anchor="middle">الدمام</text>
  <text x="1090" y="655" style="fill: #333; font-size: 10px;" text-anchor="middle">25%</text>
  
  <!-- الحجوزات الأخيرة -->
  <rect x="70" y="710" width="850" height="220" rx="6" fill="#fff" stroke="#e0e0e0" stroke-width="2"/>
  <text x="90" y="735" class="title">الحجوزات الأخيرة</text>
  
  <!-- جدول مختصر -->
  <rect x="90" y="750" width="810" height="30" rx="2" fill="#f5f5f5"/>
  <text x="110" y="770" class="label" font-weight="bold">رقم الحجز</text>
  <text x="250" y="770" class="label" font-weight="bold">العميل</text>
  <text x="400" y="770" class="label" font-weight="bold">الخدمة</text>
  <text x="550" y="770" class="label" font-weight="bold">المبلغ</text>
  <text x="700" y="770" class="label" font-weight="bold">الحالة</text>
  
  <rect x="90" y="790" width="810" height="30" rx="2" fill="#fff"/>
  <text x="110" y="810" class="label">#12345</text>
  <text x="250" y="810" class="label">أحمد المالكي</text>
  <text x="400" y="810" class="label">توصيل - الرياض</text>
  <text x="550" y="810" class="label">175 ريال</text>
  <rect x="700" y="795" width="60" height="20" rx="4" fill="#4caf50"/>
  <text x="730" y="810" style="fill: #fff; font-size: 9px;" text-anchor="middle">مكتمل</text>
  
  <rect x="90" y="830" width="810" height="30" rx="2" fill="#fafafa"/>
  <text x="110" y="850" class="label">#12344</text>
  <text x="250" y="850" class="label">فاطمة السعيد</text>
  <text x="400" y="850" class="label">8 ساعات - جدة</text>
  <text x="550" y="850" class="label">450 ريال</text>
  <rect x="700" y="835" width="60" height="20" rx="4" fill="#ff9800"/>
  <text x="730" y="850" style="fill: #fff; font-size: 9px;" text-anchor="middle">جاري</text>
  
  <rect x="90" y="870" width="810" height="30" rx="2" fill="#fff"/>
  <text x="110" y="890" class="label">#12343</text>
  <text x="250" y="890" class="label">محمد الشهري</text>
  <text x="400" y="890" class="label">بالساعة - الدمام</text>
  <text x="550" y="890" class="label">200 ريال</text>
  <rect x="700" y="875" width="60" height="20" rx="4" fill="#2196f3"/>
  <text x="730" y="890" style="fill: #fff; font-size: 9px;" text-anchor="middle">قادم</text>
  
  <!-- التنبيهات -->
  <rect x="940" y="710" width="390" height="120" rx="6" fill="#ffebee" stroke="#e53935" stroke-width="2"/>
  <text x="960" y="735" class="title">التنبيهات المهمة</text>
  <text x="970" y="760" class="label">⚠️ 3 حجوزات تحتاج موافقة</text>
  <text x="970" y="780" class="label">⚠️ سائق واحد في إجازة اليوم</text>
  <text x="970" y="800" class="label">⚠️ مستحقات مورد تحتاج دفع</text>
  
  <!-- الإجراءات السريعة -->
  <rect x="940" y="850" width="390" height="80" rx="6" fill="#e0e0e0" stroke="#9e9e9e" stroke-width="2"/>
  <text x="960" y="875" class="title">إجراءات سريعة</text>
  <rect x="960" y="890" width="100" height="30" rx="4" fill="#4caf50"/>
  <text x="1010" y="910" style="fill: #fff; font-size: 10px;" text-anchor="middle">حجز جديد</text>
  <rect x="1070" y="890" width="100" height="30" rx="4" fill="#2196f3"/>
  <text x="1120" y="910" style="fill: #fff; font-size: 10px;" text-anchor="middle">تقرير</text>
  <rect x="1180" y="890" width="100" height="30" rx="4" fill="#ff9800"/>
  <text x="1230" y="910" style="fill: #fff; font-size: 10px;" text-anchor="middle">إعدادات</text>
</svg>