<svg viewBox="0 0 800 900" xmlns="http://www.w3.org/2000/svg" direction="rtl">
  <!-- الخلفية الرئيسية -->
  <rect x="50" y="20" width="700" height="860" fill="#f5f5f5" stroke="#cccccc" stroke-width="2" rx="10"/>
  
  <!-- عنوان الشاشة -->
  <text x="400" y="50" font-family="Arial" font-size="20" font-weight="bold" text-anchor="middle" fill="#333">الشاشة الرئيسية</text>
  
  <!-- الترويسة -->
  <rect x="70" y="80" width="660" height="70" fill="#ffffff" stroke="#e0e0e0" stroke-width="1" rx="8"/>
  <text x="400" y="110" font-family="Arial" font-size="14" text-anchor="middle" fill="#666">الترويسة</text>
  <text x="400" y="130" font-family="Arial" font-size="12" text-anchor="middle" fill="#999">شعار + قائمة + إشعارات</text>
  
  <!-- بطاقة الترحيب -->
  <rect x="70" y="170" width="660" height="90" fill="#fff8e1" stroke="#ffb300" stroke-width="2" rx="8"/>
  <text x="400" y="205" font-family="Arial" font-size="14" font-weight="bold" text-anchor="middle" fill="#ff8f00">بطاقة الترحيب</text>
  <text x="400" y="230" font-family="Arial" font-size="12" text-anchor="middle" fill="#f57c00">ترحيب بالمستخدم</text>
  
  <!-- عارض السيارات -->
  <rect x="70" y="280" width="660" height="280" fill="#ffffff" stroke="#e0e0e0" stroke-width="1" rx="8"/>
  <text x="400" y="310" font-family="Arial" font-size="14" font-weight="bold" text-anchor="middle" fill="#333">عارض السيارات (Carousel)</text>
  
  <!-- بطاقة سيارة 1 -->
  <rect x="90" y="330" width="190" height="200" fill="#ffffff" stroke="#e0e0e0" stroke-width="1" rx="8"/>
  <text x="185" y="365" font-family="Arial" font-size="12" text-anchor="middle" fill="#666">بطاقة سيارة 1</text>
  <text x="185" y="385" font-family="Arial" font-size="10" text-anchor="middle" fill="#999">صورة + تفاصيل + زر</text>
  <rect x="110" y="400" width="150" height="80" fill="#f5f5f5" stroke="#ddd" stroke-width="1" rx="4"/>
  <text x="185" y="445" font-family="Arial" font-size="10" text-anchor="middle" fill="#aaa">صورة السيارة</text>
  <rect x="110" y="490" width="150" height="30" fill="#FF8C00" stroke="#E67E00" stroke-width="1" rx="4"/>
  <text x="185" y="510" font-family="Arial" font-size="11" font-weight="bold" text-anchor="middle" fill="#fff">احجز الآن</text>
  
  <!-- بطاقة سيارة 2 -->
  <rect x="305" y="330" width="190" height="200" fill="#ffffff" stroke="#e0e0e0" stroke-width="1" rx="8"/>
  <text x="400" y="365" font-family="Arial" font-size="12" text-anchor="middle" fill="#666">بطاقة سيارة 2</text>
  <text x="400" y="385" font-family="Arial" font-size="10" text-anchor="middle" fill="#999">صورة + تفاصيل + زر</text>
  <rect x="325" y="400" width="150" height="80" fill="#f5f5f5" stroke="#ddd" stroke-width="1" rx="4"/>
  <text x="400" y="445" font-family="Arial" font-size="10" text-anchor="middle" fill="#aaa">صورة السيارة</text>
  <rect x="325" y="490" width="150" height="30" fill="#FF8C00" stroke="#E67E00" stroke-width="1" rx="4"/>
  <text x="400" y="510" font-family="Arial" font-size="11" font-weight="bold" text-anchor="middle" fill="#fff">احجز الآن</text>
  
  <!-- بطاقة سيارة 3 -->
  <rect x="520" y="330" width="190" height="200" fill="#ffffff" stroke="#e0e0e0" stroke-width="1" rx="8"/>
  <text x="615" y="365" font-family="Arial" font-size="12" text-anchor="middle" fill="#666">بطاقة سيارة 3</text>
  <text x="615" y="385" font-family="Arial" font-size="10" text-anchor="middle" fill="#999">صورة + تفاصيل + زر</text>
  <rect x="540" y="400" width="150" height="80" fill="#f5f5f5" stroke="#ddd" stroke-width="1" rx="4"/>
  <text x="615" y="445" font-family="Arial" font-size="10" text-anchor="middle" fill="#aaa">صورة السيارة</text>
  <rect x="540" y="490" width="150" height="30" fill="#FF8C00" stroke="#E67E00" stroke-width="1" rx="4"/>
  <text x="615" y="510" font-family="Arial" font-size="11" font-weight="bold" text-anchor="middle" fill="#fff">احجز الآن</text>
  
  <!-- مؤشر الموقع -->
  <rect x="70" y="580" width="660" height="50" fill="#e0e0e0" stroke="#cccccc" stroke-width="1" rx="8"/>
  <text x="400" y="610" font-family="Arial" font-size="12" text-anchor="middle" fill="#666">مؤشر الموقع (نقاط توضيحية)</text>
  <circle cx="380" cy="620" r="5" fill="#FF8C00"/>
  <circle cx="400" cy="620" r="5" fill="#bdbdbd"/>
  <circle cx="420" cy="620" r="5" fill="#bdbdbd"/>
  
  <!-- قائمة الخدمات السريعة -->
  <rect x="70" y="650" width="660" height="110" fill="#ffffff" stroke="#e0e0e0" stroke-width="1" rx="8"/>
  <text x="400" y="680" font-family="Arial" font-size="14" font-weight="bold" text-anchor="middle" fill="#333">قائمة الخدمات السريعة</text>
  <text x="400" y="700" font-family="Arial" font-size="11" text-anchor="middle" fill="#999">أيقونات الوصول السريع</text>
  
  <!-- أيقونات الخدمات -->
  <g>
    <rect x="120" y="710" width="70" height="35" fill="#e3f2fd" stroke="#1976d2" stroke-width="1" rx="4"/>
    <text x="155" y="732" font-family="Arial" font-size="10" text-anchor="middle" fill="#1976d2">حجوزاتي</text>
  </g>
  <g>
    <rect x="220" y="710" width="70" height="35" fill="#e8f5e9" stroke="#388e3c" stroke-width="1" rx="4"/>
    <text x="255" y="732" font-family="Arial" font-size="10" text-anchor="middle" fill="#388e3c">الملف الشخصي</text>
  </g>
  <g>
    <rect x="320" y="710" width="70" height="35" fill="#fff3e0" stroke="#f57c00" stroke-width="1" rx="4"/>
    <text x="355" y="732" font-family="Arial" font-size="10" text-anchor="middle" fill="#f57c00">المدفوعات</text>
  </g>
  <g>
    <rect x="420" y="710" width="70" height="35" fill="#f3e5f5" stroke="#7b1fa2" stroke-width="1" rx="4"/>
    <text x="455" y="732" font-family="Arial" font-size="10" text-anchor="middle" fill="#7b1fa2">العروض</text>
  </g>
  <g>
    <rect x="520" y="710" width="70" height="35" fill="#ffebee" stroke="#e53935" stroke-width="1" rx="4"/>
    <text x="555" y="732" font-family="Arial" font-size="10" text-anchor="middle" fill="#e53935">الدعم</text>
  </g>
  <g>
    <rect x="620" y="710" width="70" height="35" fill="#fff8e1" stroke="#ffa000" stroke-width="1" rx="4"/>
    <text x="655" y="732" font-family="Arial" font-size="10" text-anchor="middle" fill="#ffa000">المزيد</text>
  </g>
  
  <!-- التذييل -->
  <rect x="70" y="780" width="660" height="80" fill="#ffffff" stroke="#e0e0e0" stroke-width="1" rx="8"/>
  <text x="400" y="810" font-family="Arial" font-size="14" font-weight="bold" text-anchor="middle" fill="#333">التذييل</text>
  <text x="400" y="830" font-family="Arial" font-size="11" text-anchor="middle" fill="#999">روابط + معلومات</text>
  <text x="400" y="850" font-family="Arial" font-size="9" text-anchor="middle" fill="#bdbdbd">© 2024 رحلتي VIP - جميع الحقوق محفوظة</text>
</svg>