<svg viewBox="0 0 1400 1000" xmlns="http://www.w3.org/2000/svg">
  <defs>
    <style>
      .title { font-family: Arial, sans-serif; font-size: 16px; font-weight: bold; fill: #333; }
      .subtitle { font-family: Arial, sans-serif; font-size: 12px; fill: #666; }
      .label { font-family: Arial, sans-serif; font-size: 10px; fill: #555; }
    </style>
  </defs>
  
  <!-- ุงูุฎูููุฉ -->
  <rect width="1400" height="1000" fill="#f5f5f5"/>
  
  <text x="700" y="30" class="title" text-anchor="middle">ุตูุญุฉ ุงูุญุฌุฒ - ุงูููุจ</text>
  
  <!-- ุนููุฏ ุงููููุฐุฌ -->
  <rect x="50" y="50" width="800" height="900" rx="8" fill="#fff" stroke="#ccc" stroke-width="2"/>
  <text x="80" y="75" class="title">ุนููุฏ ุงููููุฐุฌ</text>
  
  <!-- ุฑุฃุณ ุงูุตูุญุฉ -->
  <rect x="70" y="90" width="760" height="80" rx="4" fill="#fff" stroke="#e0e0e0" stroke-width="2"/>
  <text x="90" y="115" class="subtitle">ุฑุฃุณ ุงูุตูุญุฉ</text>
  <text x="90" y="135" class="label">ุนููุงู + ูุคุดุฑ ุงูุชูุฏู (1/5)</text>
  
  <!-- ุงุฎุชูุงุฑ ุงูููุทูุฉ -->
  <rect x="70" y="190" width="760" height="60" rx="4" fill="#fafafa" stroke="#bdbdbd" stroke-width="2"/>
  <text x="90" y="215" class="subtitle">ุงุฎุชูุงุฑ ุงูููุทูุฉ</text>
  <text x="90" y="235" class="label">ูุงุฆูุฉ ููุณุฏูุฉ: ุงูุฑูุงุถ | ุฌุฏุฉ | ุงูุฏูุงู</text>
  
  <!-- ุงุฎุชูุงุฑ ุงูุฎุฏูุฉ -->
  <rect x="70" y="270" width="760" height="120" rx="4" fill="#fff" stroke="#e0e0e0" stroke-width="2"/>
  <text x="90" y="295" class="subtitle">ุงุฎุชูุงุฑ ุงูุฎุฏูุฉ</text>
  <rect x="90" y="310" width="170" height="60" rx="4" fill="#e3f2fd" stroke="#1976d2" stroke-width="1"/>
  <text x="175" y="345" class="label" text-anchor="middle">ุชูุตูู</text>
  <rect x="280" y="310" width="170" height="60" rx="4" fill="#fff" stroke="#e0e0e0" stroke-width="1"/>
  <text x="365" y="345" class="label" text-anchor="middle">ุจุงูุณุงุนุฉ</text>
  <rect x="470" y="310" width="170" height="60" rx="4" fill="#fff" stroke="#e0e0e0" stroke-width="1"/>
  <text x="555" y="345" class="label" text-anchor="middle">8 ุณุงุนุงุช</text>
  <rect x="660" y="310" width="150" height="60" rx="4" fill="#fff" stroke="#e0e0e0" stroke-width="1"/>
  <text x="735" y="345" class="label" text-anchor="middle">12 ุณุงุนุฉ</text>
  
  <!-- ุชูุงุตูู ุงููููุน -->
  <rect x="70" y="410" width="760" height="180" rx="4" fill="#e0f2f1" stroke="#00897b" stroke-width="2"/>
  <text x="90" y="435" class="subtitle">ุชูุงุตูู ุงููููุน</text>
  <text x="90" y="455" class="label">ูู: ุญูู ูุตู + ุฎุฑูุทุฉ</text>
  <text x="90" y="475" class="label">ุฅูู: ุญูู ูุตู + ุฎุฑูุทุฉ</text>
  <rect x="90" y="490" width="720" height="80" rx="4" fill="#fff" stroke="#00897b" stroke-width="1"/>
  <text x="450" y="535" class="label" text-anchor="middle">ุฎุฑูุทุฉ ุชูุงุนููุฉ</text>
  
  <!-- ุงูุชุงุฑูุฎ ูุงูููุช -->
  <rect x="70" y="610" width="760" height="100" rx="4" fill="#fafafa" stroke="#bdbdbd" stroke-width="2"/>
  <text x="90" y="635" class="subtitle">ุงูุชุงุฑูุฎ ูุงูููุช</text>
  <rect x="90" y="650" width="350" height="40" rx="4" fill="#fff" stroke="#bdbdbd" stroke-width="1"/>
  <text x="265" y="675" class="label" text-anchor="middle">ุงูุชุงุฑูุฎ: ๐</text>
  <rect x="460" y="650" width="350" height="40" rx="4" fill="#fff" stroke="#bdbdbd" stroke-width="1"/>
  <text x="635" y="675" class="label" text-anchor="middle">ุงูููุช: ๐</text>
  
  <!-- ูุนูููุงุช ุงูุฑุงูุจ -->
  <rect x="70" y="730" width="760" height="140" rx="4" fill="#fafafa" stroke="#bdbdbd" stroke-width="2"/>
  <text x="90" y="755" class="subtitle">ูุนูููุงุช ุงูุฑุงูุจ</text>
  <text x="90" y="775" class="label">ุงูุงุณู:</text>
  <rect x="90" y="785" width="720" height="30" rx="4" fill="#fff" stroke="#bdbdbd" stroke-width="1"/>
  <text x="90" y="825" class="label">ุฑูู ุงูุฌูุงู:</text>
  <rect x="90" y="835" width="720" height="30" rx="4" fill="#fff" stroke="#bdbdbd" stroke-width="1"/>
  
  <!-- ุฃุฒุฑุงุฑ ุงูุชุญูู -->
  <rect x="70" y="890" width="760" height="60" rx="4" fill="#ff9800" stroke="#e65100" stroke-width="2"/>
  <text x="450" y="925" style="fill: #fff; font-size: 16px; font-weight: bold;" text-anchor="middle">ุงูุชุงูู โ</text>
  
  <!-- ุนููุฏ ุงูููุฎุต -->
  <rect x="900" y="50" width="450" height="900" rx="8" fill="#fff8e1" stroke="#ffa000" stroke-width="2"/>
  <text x="930" y="75" class="title">ุนููุฏ ุงูููุฎุต</text>
  
  <!-- ุจุทุงูุฉ ุงูููุฎุต -->
  <rect x="920" y="90" width="410" height="840" rx="4" fill="#fff8e1" stroke="#ffa000" stroke-width="2"/>
  <text x="940" y="115" class="subtitle">ููุฎุต ุงูุญุฌุฒ</text>
  
  <!-- ุชูุงุตูู ุงูุฎุฏูุฉ -->
  <rect x="940" y="130" width="370" height="100" rx="4" fill="#fff" stroke="#e0e0e0" stroke-width="1"/>
  <text x="960" y="155" class="subtitle">ุชูุงุตูู ุงูุฎุฏูุฉ</text>
  <text x="960" y="175" class="label">ุงูููุน: ุชูุตูู</text>
  <text x="960" y="195" class="label">ุงูุชุงุฑูุฎ: 2025/11/15</text>
  <text x="960" y="215" class="label">ุงูููุช: 10:00 ุตุจุงุญุงู</text>
  
  <!-- ูุนูููุงุช ุงููุณุงุฑ -->
  <rect x="940" y="250" width="370" height="120" rx="4" fill="#e3f2fd" stroke="#1976d2" stroke-width="1"/>
  <text x="960" y="275" class="subtitle">ูุนูููุงุช ุงููุณุงุฑ</text>
  <text x="960" y="295" class="label">ูู: ุงูุฑูุงุถ - ุญู ุงููุฎูู</text>
  <text x="960" y="315" class="label">ุฅูู: ุงูุฑูุงุถ - ุงููุทุงุฑ</text>
  <text x="960" y="335" class="label">ุงููุณุงูุฉ: 35 ูู</text>
  <text x="960" y="355" class="label">ุงููุฏุฉ ุงููุชููุนุฉ: 45 ุฏูููุฉ</text>
  
  <!-- ุชูุตูู ุงูุฃุณุนุงุฑ -->
  <rect x="940" y="390" width="370" height="200" rx="4" fill="#e8f5e9" stroke="#66bb6a" stroke-width="1"/>
  <text x="960" y="415" class="subtitle">ุชูุตูู ุงูุฃุณุนุงุฑ</text>
  <text x="960" y="435" class="label">ุงูุณุนุฑ ุงูุฃุณุงุณู: 70 ุฑูุงู</text>
  <text x="960" y="455" class="label">ุงููุณุงูุฉ (35 ูู ร 2): 70 ุฑูุงู</text>
  <text x="960" y="475" class="label">ุฑุณูู ุฅุถุงููุฉ: 10 ุฑูุงู</text>
  <line x1="960" y1="490" x2="1290" y2="490" stroke="#66bb6a" stroke-width="1"/>
  <text x="960" y="510" class="subtitle">ุงููุฌููุน ูุจู ุงูุถุฑูุจุฉ: 150 ุฑูุงู</text>
  <text x="960" y="530" class="label">ุถุฑูุจุฉ ุงููููุฉ ุงููุถุงูุฉ (15%): 22.50 ุฑูุงู</text>
  
  <!-- ุงูุณุนุฑ ุงูุฅุฌูุงูู -->
  <rect x="940" y="610" width="370" height="80" rx="4" fill="#ffecb3" stroke="#ff6f00" stroke-width="2"/>
  <text x="1125" y="640" style="font-size: 14px; font-weight: bold; fill: #333;" text-anchor="middle">ุงูุณุนุฑ ุงูุฅุฌูุงูู</text>
  <text x="1125" y="670" style="font-size: 20px; font-weight: bold; fill: #ff6f00;" text-anchor="middle">172.50 ุฑูุงู</text>
  
  <!-- ููุงุญุธุงุช -->
  <rect x="940" y="710" width="370" height="200" rx="4" fill="#fafafa" stroke="#bdbdbd" stroke-width="1"/>
  <text x="960" y="735" class="subtitle">ููุงุญุธุงุช</text>
  <text x="960" y="755" class="label">โข ูุฑุฌู ุงูุชูุงุฌุฏ ูู ุงูููุนุฏ ุงููุญุฏุฏ</text>
  <text x="960" y="775" class="label">โข ููููู ุงูุชูุงุตู ูุน ุงูุณุงุฆู ูุจุงุดุฑุฉ</text>
  <text x="960" y="795" class="label">โข ุฅูุบุงุก ูุฌุงูู ูุจู 24 ุณุงุนุฉ</text>
  <text x="960" y="815" class="label">โข ุงูุฏูุน: ููุฏู ุฃู ุฅููุชุฑููู</text>
</svg>