<svg viewBox="0 0 1200 1800" xmlns="http://www.w3.org/2000/svg">
  <defs>
    <style>
      .title { font-family: Arial, sans-serif; font-size: 16px; font-weight: bold; fill: #333; }
      .subtitle { font-family: Arial, sans-serif; font-size: 12px; fill: #666; }
      .label { font-family: Arial, sans-serif; font-size: 11px; fill: #555; }
      .price { font-family: Arial, sans-serif; font-size: 10px; fill: #2e7d32; }
    </style>
  </defs>
  
  <!-- الخلفية -->
  <rect width="1200" height="1800" fill="#f5f5f5"/>
  
  <!-- الحاوية الرئيسية -->
  <rect x="50" y="50" width="1100" height="1700" rx="8" fill="#fff" stroke="#ccc" stroke-width="2"/>
  <text x="600" y="30" class="title" text-anchor="middle">صفحة السيارات والأسعار</text>
  
  <!-- الرأس -->
  <rect x="70" y="70" width="1060" height="100" rx="4" fill="#fff" stroke="#e0e0e0" stroke-width="2"/>
  <text x="100" y="100" class="title">السيارات والأسعار</text>
  <text x="100" y="120" class="subtitle">اختر الفئة المناسبة واطلع على الأسعار</text>
  
  <!-- شريط التصفية -->
  <rect x="70" y="190" width="1060" height="60" rx="4" fill="#fff8e1" stroke="#ffa000" stroke-width="2"/>
  <text x="100" y="215" class="title">شريط التصفية</text>
  <text x="100" y="235" class="label">اختيار المنطقة: الرياض | جدة | الدمام</text>
  
  <!-- قسم السيدان -->
  <rect x="70" y="270" width="1060" height="350" rx="4" fill="#fff" stroke="#e0e0e0" stroke-width="2"/>
  <text x="100" y="295" class="title">قسم السيدان</text>
  
  <!-- صورة السيارة -->
  <rect x="90" y="310" width="400" height="250" rx="4" fill="#fafafa" stroke="#bdbdbd" stroke-width="2"/>
  <text x="290" y="425" class="subtitle" text-anchor="middle">صورة السيارة</text>
  <text x="290" y="445" class="label" text-anchor="middle">صورة عالية الجودة</text>
  
  <!-- معلومات الفئة -->
  <rect x="510" y="310" width="600" height="100" rx="4" fill="#fff" stroke="#e0e0e0" stroke-width="2"/>
  <text x="530" y="335" class="subtitle">معلومات الفئة</text>
  <text x="530" y="355" class="label">الوصف: سيارات عائلية مريحة واقتصادية</text>
  <text x="530" y="375" class="label">المميزات: 4 مقاعد، تكييف، مساحة واسعة</text>
  
  <!-- جدول الأسعار -->
  <rect x="510" y="430" width="600" height="180" rx="4" fill="#f5f5f5" stroke="#ccc" stroke-width="2"/>
  <text x="530" y="455" class="title">جدول الأسعار</text>
  
  <rect x="530" y="470" width="560" height="25" rx="2" fill="#e8f5e9" stroke="#66bb6a" stroke-width="1"/>
  <text x="550" y="487" class="price">التوصيل: 2 ريال/كم</text>
  
  <rect x="530" y="505" width="560" height="25" rx="2" fill="#e8f5e9" stroke="#66bb6a" stroke-width="1"/>
  <text x="550" y="522" class="price">بالساعة: 50 ريال</text>
  
  <rect x="530" y="540" width="560" height="25" rx="2" fill="#e8f5e9" stroke="#66bb6a" stroke-width="1"/>
  <text x="550" y="557" class="price">8 ساعات: 350 ريال</text>
  
  <rect x="530" y="575" width="560" height="25" rx="2" fill="#e8f5e9" stroke="#66bb6a" stroke-width="1"/>
  <text x="550" y="592" class="price">12 ساعة: 500 ريال</text>
  
  <!-- زر احجز -->
  <rect x="90" y="570" width="400" height="50" rx="6" fill="#ff9800" stroke="#e65100" stroke-width="2"/>
  <text x="290" y="600" style="fill: #fff; font-size: 16px; font-weight: bold;" text-anchor="middle">احجز الآن</text>
  
  <!-- قسم SUV -->
  <rect x="70" y="640" width="1060" height="350" rx="4" fill="#fff" stroke="#e0e0e0" stroke-width="2"/>
  <text x="100" y="665" class="title">قسم SUV</text>
  
  <rect x="90" y="680" width="400" height="250" rx="4" fill="#fafafa" stroke="#bdbdbd" stroke-width="2"/>
  <text x="290" y="795" class="subtitle" text-anchor="middle">صورة SUV</text>
  
  <rect x="510" y="680" width="600" height="100" rx="4" fill="#fff" stroke="#e0e0e0" stroke-width="2"/>
  <text x="530" y="705" class="subtitle">معلومات الفئة</text>
  <text x="530" y="725" class="label">سيارات فسيحة مناسبة للعائلات والمجموعات</text>
  
  <rect x="510" y="800" width="600" height="180" rx="4" fill="#f5f5f5" stroke="#ccc" stroke-width="2"/>
  <text x="530" y="825" class="title">جدول الأسعار</text>
  <rect x="530" y="840" width="560" height="25" rx="2" fill="#e8f5e9" stroke="#66bb6a" stroke-width="1"/>
  <text x="550" y="857" class="price">التوصيل: 3 ريال/كم</text>
  
  <rect x="90" y="940" width="400" height="50" rx="6" fill="#ff9800" stroke="#e65100" stroke-width="2"/>
  <text x="290" y="970" style="fill: #fff; font-size: 16px; font-weight: bold;" text-anchor="middle">احجز الآن</text>
  
  <!-- قسم الباص -->
  <rect x="70" y="1010" width="1060" height="350" rx="4" fill="#fff" stroke="#e0e0e0" stroke-width="2"/>
  <text x="100" y="1035" class="title">قسم الباص</text>
  
  <rect x="90" y="1050" width="400" height="250" rx="4" fill="#fafafa" stroke="#bdbdbd" stroke-width="2"/>
  <text x="290" y="1165" class="subtitle" text-anchor="middle">صورة الباص</text>
  
  <rect x="510" y="1050" width="600" height="100" rx="4" fill="#fff" stroke="#e0e0e0" stroke-width="2"/>
  <text x="530" y="1075" class="subtitle">معلومات الفئة</text>
  <text x="530" y="1095" class="label">باصات سياحية للمجموعات الكبيرة</text>
  
  <rect x="510" y="1170" width="600" height="180" rx="4" fill="#f5f5f5" stroke="#ccc" stroke-width="2"/>
  <text x="530" y="1195" class="title">جدول الأسعار</text>
  <rect x="530" y="1210" width="560" height="25" rx="2" fill="#e8f5e9" stroke="#66bb6a" stroke-width="1"/>
  <text x="550" y="1227" class="price">8 ساعات: 800 ريال</text>
  
  <rect x="90" y="1310" width="400" height="50" rx="6" fill="#ff9800" stroke="#e65100" stroke-width="2"/>
  <text x="290" y="1340" style="fill: #fff; font-size: 16px; font-weight: bold;" text-anchor="middle">احجز الآن</text>
  
  <!-- قسم اللاكجري -->
  <rect x="70" y="1380" width="1060" height="350" rx="4" fill="#fff" stroke="#e0e0e0" stroke-width="2"/>
  <text x="100" y="1405" class="title">قسم اللاكجري</text>
  
  <rect x="90" y="1420" width="400" height="250" rx="4" fill="#fafafa" stroke="#bdbdbd" stroke-width="2"/>
  <text x="290" y="1535" class="subtitle" text-anchor="middle">صورة لاكجري</text>
  
  <rect x="510" y="1420" width="600" height="100" rx="4" fill="#fff" stroke="#e0e0e0" stroke-width="2"/>
  <text x="530" y="1445" class="subtitle">معلومات الفئة</text>
  <text x="530" y="1465" class="label">سيارات فاخرة لتجربة استثنائية</text>
  
  <rect x="510" y="1540" width="600" height="180" rx="4" fill="#f5f5f5" stroke="#ccc" stroke-width="2"/>
  <text x="530" y="1565" class="title">جدول الأسعار</text>
  <rect x="530" y="1580" width="560" height="25" rx="2" fill="#e8f5e9" stroke="#66bb6a" stroke-width="1"/>
  <text x="550" y="1597" class="price">بالساعة: 150 ريال</text>
  
  <rect x="90" y="1680" width="400" height="50" rx="6" fill="#ff9800" stroke="#e65100" stroke-width="2"/>
  <text x="290" y="1710" style="fill: #fff; font-size: 16px; font-weight: bold;" text-anchor="middle">احجز الآن</text>
</svg>