<svg viewBox="0 0 1400 1100" xmlns="http://www.w3.org/2000/svg">
  <defs>
    <style>
      .title { font-family: Arial, sans-serif; font-size: 16px; font-weight: bold; fill: #333; }
      .subtitle { font-family: Arial, sans-serif; font-size: 12px; fill: #666; }
      .label { font-family: Arial, sans-serif; font-size: 10px; fill: #555; }
      .header-text { font-family: Arial, sans-serif; font-size: 10px; font-weight: bold; fill: #333; }
    </style>
  </defs>
  
  <!-- ุงูุฎูููุฉ -->
  <rect width="1400" height="1100" fill="#f5f5f5"/>
  
  <!-- ุงูุญุงููุฉ ุงูุฑุฆูุณูุฉ -->
  <rect x="50" y="50" width="1300" height="1000" rx="8" fill="#fff" stroke="#ccc" stroke-width="2"/>
  <text x="700" y="30" class="title" text-anchor="middle">ุดุงุดุฉ ุงุณุชูุจุงู ุงูุญุฌูุฒุงุช</text>
  
  <!-- ุงูุฑุฃุณ -->
  <rect x="70" y="70" width="1260" height="70" rx="4" fill="#fff8e1" stroke="#ffa000" stroke-width="3"/>
  <text x="90" y="100" class="title">ุงุณุชูุจุงู ุงูุญุฌูุฒุงุช</text>
  <text x="90" y="120" class="subtitle">โ๏ธ ูุฏูู 18 ุญุฌุฒ ูุนูู ูุญุชุงุฌ ูููุฑุงุฌุนุฉ</text>
  <rect x="1100" y="85" width="210" height="40" rx="6" fill="#ff9800" stroke="#e65100" stroke-width="2"/>
  <text x="1205" y="110" style="fill: #fff; font-size: 14px; font-weight: bold;" text-anchor="middle">๐ ุงูุญุฌูุฒุงุช ุงููุนููุฉ</text>
  
  <!-- ุดุฑูุท ุงูุชุตููุฉ -->
  <rect x="70" y="160" width="1260" height="60" rx="4" fill="#fafafa" stroke="#bdbdbd" stroke-width="2"/>
  <text x="90" y="185" class="subtitle">ุงูููุงุชุฑ:</text>
  <rect x="90" y="195" width="150" height="25" rx="4" fill="#fff" stroke="#bdbdbd" stroke-width="1"/>
  <text x="165" y="212" class="label" text-anchor="middle">ุงูุชุงุฑูุฎ โผ</text>
  <rect x="260" y="195" width="150" height="25" rx="4" fill="#fff" stroke="#bdbdbd" stroke-width="1"/>
  <text x="335" y="212" class="label" text-anchor="middle">ุงูููุทูุฉ โผ</text>
  <rect x="430" y="195" width="150" height="25" rx="4" fill="#fff" stroke="#bdbdbd" stroke-width="1"/>
  <text x="505" y="212" class="label" text-anchor="middle">ููุน ุงูุฎุฏูุฉ โผ</text>
  <rect x="600" y="195" width="150" height="25" rx="4" fill="#fff" stroke="#bdbdbd" stroke-width="1"/>
  <text x="675" y="212" class="label" text-anchor="middle">ุญุงูุฉ ุงูุฏูุน โผ</text>
  <rect x="900" y="195" width="400" height="25" rx="4" fill="#fff" stroke="#bdbdbd" stroke-width="1"/>
  <text x="920" y="212" class="label">๐ ุงูุจุญุซ ุจุฑูู ุงูุญุฌุฒ ุฃู ุงุณู ุงูุนููู...</text>
  
  <!-- ุงูุฌุฏูู ุงูุฑุฆูุณู -->
  <rect x="70" y="240" width="1260" height="500" rx="4" fill="#fff" stroke="#e0e0e0" stroke-width="2"/>
  
  <!-- ุชุฑููุณุฉ ุงูุฌุฏูู -->
  <rect x="90" y="260" width="1220" height="30" rx="2" fill="#f5f5f5"/>
  <text x="110" y="280" class="header-text">ุฑูู ุงูุญุฌุฒ</text>
  <text x="230" y="280" class="header-text">ุงูุนููู</text>
  <text x="400" y="280" class="header-text">ุงูุชุงุฑูุฎ ูุงูููุช</text>
  <text x="570" y="280" class="header-text">ุงูุฎุฏูุฉ</text>
  <text x="740" y="280" class="header-text">ุงููุจูุบ</text>
  <text x="860" y="280" class="header-text">ุญุงูุฉ ุงูุฏูุน</text>
  <text x="1020" y="280" class="header-text">ุงูุฅุฌุฑุงุกุงุช</text>
  
  <!-- ุตู 1 - ุญุฌุฒ ูุนูู -->
  <rect x="90" y="300" width="1220" height="70" rx="2" fill="#fff8e1"/>
  <text x="110" y="330" class="label" font-weight="bold" fill="#ff6f00">#12345</text>
  <text x="110" y="350" class="label" fill="#999">ุฌุฏูุฏ</text>
  <text x="230" y="330" class="label">ุฃุญูุฏ ุงููุงููู</text>
  <text x="230" y="350" class="label" fill="#999">ูุฑุฏ | 0501234567</text>
  <text x="400" y="330" class="label">2025/11/15</text>
  <text x="400" y="350" class="label">10:00 ุตุจุงุญุงู</text>
  <text x="570" y="330" class="label">ุชูุตูู</text>
  <text x="570" y="350" class="label" fill="#999">ุงูุฑูุงุถ - ุงููุทุงุฑ</text>
  <text x="740" y="340" class="label" font-weight="bold">175 ุฑูุงู</text>
  <rect x="860" y="320" width="80" height="25" rx="12" fill="#ff9800"/>
  <text x="900" y="337" style="fill: #fff; font-size: 9px; font-weight: bold;" text-anchor="middle">ูุนูู</text>
  
  <rect x="1020" y="310" width="80" height="25" rx="4" fill="#4caf50"/>
  <text x="1060" y="327" style="fill: #fff; font-size: 9px; font-weight: bold;" text-anchor="middle">โ ููุงููุฉ</text>
  <rect x="1110" y="310" width="80" height="25" rx="4" fill="#f44336"/>
  <text x="1150" y="327" style="fill: #fff; font-size: 9px; font-weight: bold;" text-anchor="middle">โ ุฑูุถ</text>
  <rect x="1200" y="310" width="80" height="25" rx="4" fill="#2196f3"/>
  <text x="1240" y="327" style="fill: #fff; font-size: 9px; font-weight: bold;" text-anchor="middle">ุชูุงุตูู</text>
  
  <!-- ุตู 2 - ุญุฌุฒ ูุนูู -->
  <rect x="90" y="380" width="1220" height="70" rx="2" fill="#fff"/>
  <text x="110" y="410" class="label" font-weight="bold" fill="#ff6f00">#12346</text>
  <text x="110" y="430" class="label" fill="#999">ุฌุฏูุฏ</text>
  <text x="230" y="410" class="label">ูุงุทูุฉ ุงูุณุนูุฏ</text>
  <text x="230" y="430" class="label" fill="#999">ุดุฑูุฉ | 0559876543</text>
  <text x="400" y="410" class="label">2025/11/16</text>
  <text x="400" y="430" class="label">02:00 ูุณุงุกู</text>
  <text x="570" y="410" class="label">8 ุณุงุนุงุช</text>
  <text x="570" y="430" class="label" fill="#999">ุฌุฏุฉ - ุฌููุฉ ุณูุงุญูุฉ</text>
  <text x="740" y="420" class="label" font-weight="bold">450 ุฑูุงู</text>
  <rect x="860" y="400" width="80" height="25" rx="12" fill="#4caf50"/>
  <text x="900" y="417" style="fill: #fff; font-size: 9px; font-weight: bold;" text-anchor="middle">ูุฏููุน</text>
  
  <rect x="1020" y="390" width="80" height="25" rx="4" fill="#4caf50"/>
  <text x="1060" y="407" style="fill: #fff; font-size: 9px; font-weight: bold;" text-anchor="middle">โ ููุงููุฉ</text>
  <rect x="1110" y="390" width="80" height="25" rx="4" fill="#f44336"/>
  <text x="1150" y="407" style="fill: #fff; font-size: 9px; font-weight: bold;" text-anchor="middle">โ ุฑูุถ</text>
  <rect x="1200" y="390" width="80" height="25" rx="4" fill="#2196f3"/>
  <text x="1240" y="407" style="fill: #fff; font-size: 9px; font-weight: bold;" text-anchor="middle">ุชูุงุตูู</text>
  
  <!-- ุตู 3 - ุญุฌุฒ ูุนูู -->
  <rect x="90" y="460" width="1220" height="70" rx="2" fill="#fff8e1"/>
  <text x="110" y="490" class="label" font-weight="bold" fill="#ff6f00">#12347</text>
  <text x="110" y="510" class="label" fill="#999">ุฌุฏูุฏ</text>
  <text x="230" y="490" class="label">ูุญูุฏ ุงูุดูุฑู</text>
  <text x="230" y="510" class="label" fill="#999">ูุฑุฏ | 0544445555</text>
  <text x="400" y="490" class="label">2025/11/15</text>
  <text x="400" y="510" class="label">08:00 ูุณุงุกู</text>
  <text x="570" y="490" class="label">ุจุงูุณุงุนุฉ</text>
  <text x="570" y="510" class="label" fill="#999">ุงูุฏูุงู - 3 ุณุงุนุงุช</text>
  <text x="740" y="500" class="label" font-weight="bold">200 ุฑูุงู</text>
  <rect x="860" y="480" width="80" height="25" rx="12" fill="#9e9e9e"/>
  <text x="900" y="497" style="fill: #fff; font-size: 9px; font-weight: bold;" text-anchor="middle">ูุงุด</text>
  
  <rect x="1020" y="470" width="80" height="25" rx="4" fill="#4caf50"/>
  <text x="1060" y="487" style="fill: #fff; font-size: 9px; font-weight: bold;" text-anchor="middle">โ ููุงููุฉ</text>
  <rect x="1110" y="470" width="80" height="25" rx="4" fill="#f44336"/>
  <text x="1150" y="487" style="fill: #fff; font-size: 9px; font-weight: bold;" text-anchor="middle">โ ุฑูุถ</text>
  <rect x="1200" y="470" width="80" height="25" rx="4" fill="#2196f3"/>
  <text x="1240" y="487" style="fill: #fff; font-size: 9px; font-weight: bold;" text-anchor="middle">ุชูุงุตูู</text>
  
  <!-- ุตู 4 - ุญุฌุฒ ูุคูุฏ -->
  <rect x="90" y="540" width="1220" height="70" rx="2" fill="#e8f5e9"/>
  <text x="110" y="570" class="label" font-weight="bold" fill="#2e7d32">#12348</text>
  <text x="110" y="590" class="label" fill="#999">ูุคูุฏ</text>
  <text x="230" y="570" class="label">ููุฑุฉ ุงูุนูุฑู</text>
  <text x="230" y="590" class="label" fill="#999">ูุฑุฏ | 0566667777</text>
  <text x="400" y="570" class="label">2025/11/17</text>
  <text x="400" y="590" class="label">06:00 ุตุจุงุญุงู</text>
  <text x="570" y="570" class="label">ุชูุตูู</text>
  <text x="570" y="590" class="label" fill="#999">ุงูุฑูุงุถ - ุฌุฏุฉ</text>
  <text x="740" y="580" class="label" font-weight="bold">650 ุฑูุงู</text>
  <rect x="860" y="560" width="80" height="25" rx="12" fill="#4caf50"/>
  <text x="900" y="577" style="fill: #fff; font-size: 9px; font-weight: bold;" text-anchor="middle">ูุฏููุน</text>
  
  <rect x="1020" y="550" width="260" height="25" rx="4" fill="#e8f5e9" stroke="#66bb6a" stroke-width="1"/>
  <text x="1150" y="567" class="label" text-anchor="middle">โ ุชู ุงูุชุฃููุฏ</text>
  
  <!-- ุตู 5 - ุญุฌุฒ ูุฑููุถ -->
  <rect x="90" y="620" width="1220" height="70" rx="2" fill="#ffebee"/>
  <text x="110" y="650" class="label" font-weight="bold" fill="#c62828">#12349</text>
  <text x="110" y="670" class="label" fill="#999">ูุฑููุถ</text>
  <text x="230" y="650" class="label">ุณุนุฏ ุงูุฒูุฑุงูู</text>
  <text x="230" y="670" class="label" fill="#999">ูุฑุฏ | 0577778888</text>
  <text x="400" y="650" class="label">2025/11/14</text>
  <text x="400" y="670" class="label">11:00 ุตุจุงุญุงู</text>
  <text x="570" y="650" class="label">12 ุณุงุนุฉ</text>
  <text x="570" y="670" class="label" fill="#999">ุงูุฏูุงู - ููู ูุงูู</text>
  <text x="740" y="660" class="label" font-weight="bold">500 ุฑูุงู</text>
  <rect x="860" y="640" width="80" height="25" rx="12" fill="#f44336"/>
  <text x="900" y="657" style="fill: #fff; font-size: 9px; font-weight: bold;" text-anchor="middle">ูุนูู</text>
  
  <rect x="1020" y="630" width="260" height="25" rx="4" fill="#ffcdd2" stroke="#e57373" stroke-width="1"/>
  <text x="1150" y="647" class="label" text-anchor="middle">โ ุชู ุงูุฑูุถ - ุณูุงุฑุฉ ุบูุฑ ูุชุงุญุฉ</text>
  
  <!-- ุชุฑููู ุงูุตูุญุงุช -->
  <rect x="550" y="710" width="300" height="40" rx="4" fill="#f5f5f5" stroke="#e0e0e0" stroke-width="1"/>
  <text x="700" y="735" class="label" text-anchor="middle">โ ุงูุณุงุจู | 1 2 3 4 5 | ุงูุชุงูู โ</text>
  
  <!-- ูุงูุฐุฉ ุงูุชูุงุตูู (Modal) -->
  <rect x="70" y="770" width="1260" height="270" rx="6" fill="#fff" stroke="#2196f3" stroke-width="3"/>
  <text x="90" y="800" class="title">ูุงูุฐุฉ ุงูุชูุงุตูู - Modal</text>
  <text x="90" y="820" class="subtitle">ุชุธูุฑ ุนูุฏ ุงูููุฑ ุนูู "ุชูุงุตูู"</text>
  
  <!-- ูุนูููุงุช ุงูุนููู -->
  <rect x="90" y="840" width="380" height="180" rx="4" fill="#e3f2fd" stroke="#1976d2" stroke-width="2"/>
  <text x="110" y="865" class="subtitle">ูุนูููุงุช ุงูุนููู</text>
  <text x="110" y="885" class="label">โข ุงูุงุณู: ุฃุญูุฏ ุงููุงููู</text>
  <text x="110" y="905" class="label">โข ุงูููุน: ูุฑุฏ</text>
  <text x="110" y="925" class="label">โข ุงูุฌูุงู: 0501234567</text>
  <text x="110" y="945" class="label">โข ุงูุจุฑูุฏ: ahmed@email.com</text>
  <text x="110" y="965" class="label">โข ุนุฏุฏ ุงูุฑุญูุงุช ุงูุณุงุจูุฉ: 12</text>
  <text x="110" y="985" class="label">โข ุงูุชูููู: โญโญโญโญโญ (4.9)</text>
  
  <!-- ุชูุงุตูู ุงูุฎุฏูุฉ -->
  <rect x="490" y="840" width="380" height="180" rx="4" fill="#e8f5e9" stroke="#66bb6a" stroke-width="2"/>
  <text x="510" y="865" class="subtitle">ุชูุงุตูู ุงูุฎุฏูุฉ</text>
  <text x="510" y="885" class="label">โข ููุน ุงูุฎุฏูุฉ: ุชูุตูู</text>
  <text x="510" y="905" class="label">โข ุงูุชุงุฑูุฎ: 2025/11/15</text>
  <text x="510" y="925" class="label">โข ุงูููุช: 10:00 ุตุจุงุญุงู</text>
  <text x="510" y="945" class="label">โข ูู: ุงูุฑูุงุถ - ุญู ุงููุฎูู</text>
  <text x="510" y="965" class="label">โข ุฅูู: ุงูุฑูุงุถ - ูุทุงุฑ ุงูููู ุฎุงูุฏ</text>
  <text x="510" y="985" class="label">โข ุงููุณุงูุฉ ุงููุชููุนุฉ: 35 ูู</text>
  <text x="510" y="1005" class="label">โข ููุน ุงูุณูุงุฑุฉ ุงููุทููุจ: ุณูุฏุงู</text>
  
  <!-- ูุนูููุงุช ุงูุฏูุน -->
  <rect x="890" y="840" width="420" height="100" rx="4" fill="#fff8e1" stroke="#ffa000" stroke-width="2"/>
  <text x="910" y="865" class="subtitle">ูุนูููุงุช ุงูุฏูุน</text>
  <text x="910" y="885" class="label">โข ุงููุจูุบ ุงูุฅุฌูุงูู: 175 ุฑูุงู</text>
  <text x="910" y="905" class="label">โข ุญุงูุฉ ุงูุฏูุน: ูุนูู</text>
  <text x="910" y="925" class="label">โข ุทุฑููุฉ ุงูุฏูุน ุงูููุถูุฉ: ุจุทุงูุฉ ุงุฆุชูุงู</text>
  
  <!-- ุฃุฒุฑุงุฑ ุงูุฅุฌุฑุงุก ุงูููุงุฆูุฉ -->
  <rect x="890" y="960" width="190" height="50" rx="6" fill="#4caf50" stroke="#2e7d32" stroke-width="2"/>
  <text x="985" y="990" style="fill: #fff; font-size: 14px; font-weight: bold;" text-anchor="middle">โ ุชุฃููุฏ ุงูุญุฌุฒ</text>
  
  <rect x="1100" y="960" width="210" height="50" rx="6" fill="#f44336" stroke="#c62828" stroke-width="2"/>
  <text x="1205" y="990" style="fill: #fff; font-size: 14px; font-weight: bold;" text-anchor="middle">โ ุฑูุถ ุงูุญุฌุฒ</text>
</svg>