<svg viewBox="0 0 1000 1200" xmlns="http://www.w3.org/2000/svg">
  <!-- ุงูุฎูููุฉ ุงูุฑุฆูุณูุฉ -->
  <rect x="30" y="20" width="940" height="1160" fill="#f5f5f5" stroke="#cccccc" stroke-width="2" rx="10"/>
  
  <!-- ุนููุงู ุงูุดุงุดุฉ -->
  <text x="500" y="50" font-family="Arial" font-size="20" font-weight="bold" text-anchor="middle" fill="#333">ุดุงุดุฉ ููุฏ ุงูุชุฌููุฒ</text>
  
  <!-- ุงูุฑุฃุณ -->
  <rect x="50" y="80" width="900" height="70" fill="#fff3e0" stroke="#ff6f00" stroke-width="2" rx="8"/>
  <text x="80" y="110" font-family="Arial" font-size="16" font-weight="bold" fill="#e65100">โฐ ุญุฌูุฒุงุช ุชุญุชุงุฌ ุฑุจุท ุจุณุงุฆู</text>
  <rect x="780" y="95" width="150" height="35" fill="#f44336" stroke="#c62828" stroke-width="2" rx="6"/>
  <text x="855" y="120" font-family="Arial" font-size="15" font-weight="bold" text-anchor="middle" fill="#fff">8 ุญุฌูุฒุงุช ุนุงุฌูุฉ</text>
  <circle cx="750" cy="113" r="8" fill="#f44336">
    <animate attributeName="opacity" values="1;0.3;1" dur="1s" repeatCount="indefinite"/>
  </circle>
  
  <!-- ุงูููุงุชุฑ ุงููุชูุฏูุฉ -->
  <rect x="50" y="170" width="900" height="70" fill="#fafafa" stroke="#bdbdbd" stroke-width="1" rx="8"/>
  <text x="80" y="195" font-family="Arial" font-size="13" font-weight="bold" fill="#333">๐ ููุชุฑุฉ ูุจุญุซ</text>
  
  <rect x="70" y="205" width="150" height="30" fill="#ffffff" stroke="#bdbdbd" stroke-width="1" rx="4"/>
  <text x="145" y="227" font-family="Arial" font-size="11" text-anchor="middle" fill="#999">ุงูููุช โผ</text>
  
  <rect x="240" y="205" width="150" height="30" fill="#ffffff" stroke="#bdbdbd" stroke-width="1" rx="4"/>
  <text x="315" y="227" font-family="Arial" font-size="11" text-anchor="middle" fill="#999">ุงูููุทูุฉ โผ</text>
  
  <rect x="410" y="205" width="150" height="30" fill="#ffffff" stroke="#bdbdbd" stroke-width="1" rx="4"/>
  <text x="485" y="227" font-family="Arial" font-size="11" text-anchor="middle" fill="#999">ูุฆุฉ ุงูุณูุงุฑุฉ โผ</text>
  
  <rect x="580" y="205" width="330" height="30" fill="#ffffff" stroke="#bdbdbd" stroke-width="1" rx="4"/>
  <text x="595" y="227" font-family="Arial" font-size="11" fill="#999">๐ ุจุญุซ ุจุฑูู ุงูุญุฌุฒ ุฃู ุงุณู ุงูุนููู...</text>
  
  <!-- ุงูุฌุฏูู ุงูุฑุฆูุณู -->
  <rect x="50" y="260" width="900" height="450" fill="#ffffff" stroke="#e0e0e0" stroke-width="1" rx="8"/>
  <text x="80" y="290" font-family="Arial" font-size="14" font-weight="bold" fill="#333">๐ ูุงุฆูุฉ ุงูุญุฌูุฒุงุช</text>
  
  <!-- ุฑุฃุณ ุงูุฌุฏูู -->
  <rect x="70" y="305" width="860" height="35" fill="#f5f5f5" stroke="#e0e0e0" stroke-width="1" rx="4"/>
  <text x="95" y="327" font-family="Arial" font-size="10" font-weight="bold" fill="#666">ุฑูู ุงูุญุฌุฒ</text>
  <text x="200" y="327" font-family="Arial" font-size="10" font-weight="bold" fill="#666">ุงูุนููู</text>
  <text x="320" y="327" font-family="Arial" font-size="10" font-weight="bold" fill="#666">ุงูุฎุฏูุฉ/ุงููููุน</text>
  <text x="530" y="327" font-family="Arial" font-size="10" font-weight="bold" fill="#666">ุงูููุช</text>
  <text x="650" y="327" font-family="Arial" font-size="10" font-weight="bold" fill="#666">ุงููุฆุฉ</text>
  <text x="760" y="327" font-family="Arial" font-size="10" font-weight="bold" fill="#666">ูุชุงุญ</text>
  <text x="850" y="327" font-family="Arial" font-size="10" font-weight="bold" fill="#666">ุฅุฌุฑุงุก</text>
  
  <!-- ุตู 1 - ุนุงุฌู -->
  <rect x="70" y="350" width="860" height="50" fill="#ffebee" stroke="#f44336" stroke-width="2" rx="4"/>
  <rect x="80" y="360" width="90" height="25" fill="#f44336" stroke="#c62828" stroke-width="1" rx="4"/>
  <text x="125" y="378" font-family="Arial" font-size="10" font-weight="bold" text-anchor="middle" fill="#fff">#BO-1250</text>
  
  <text x="190" y="375" font-family="Arial" font-size="10" fill="#333">ุฃุญูุฏ ุงูุณุงูู</text>
  <text x="190" y="390" font-family="Arial" font-size="9" fill="#666">0501234567</text>
  
  <text x="310" y="375" font-family="Arial" font-size="10" fill="#333">ุชูุตูู - ุงูุฑูุงุถ</text>
  <text x="310" y="390" font-family="Arial" font-size="9" fill="#666">ุงููุทุงุฑ โ ุงููุฎูู</text>
  
  <text x="520" y="375" font-family="Arial" font-size="10" font-weight="bold" fill="#f44336">ุจุนุฏ 15 ุฏูููุฉ!</text>
  <text x="520" y="390" font-family="Arial" font-size="9" fill="#d32f2f">โฐ 10:15 ุต</text>
  
  <rect x="640" y="365" width="70" height="20" fill="#fff3e0" stroke="#f57c00" stroke-width="1" rx="4"/>
  <text x="675" y="379" font-family="Arial" font-size="9" text-anchor="middle" fill="#f57c00">ุณูุฏุงู</text>
  
  <rect x="740" y="365" width="50" height="20" fill="#4caf50" stroke="#2e7d32" stroke-width="1" rx="4"/>
  <text x="765" y="379" font-family="Arial" font-size="9" font-weight="bold" text-anchor="middle" fill="#fff">12</text>
  
  <rect x="810" y="362" width="100" height="28" fill="#FF8C00" stroke="#E67E00" stroke-width="2" rx="4"/>
  <text x="860" y="382" font-family="Arial" font-size="10" font-weight="bold" text-anchor="middle" fill="#fff">๐ ุฑุจุท ุงูุขู</text>
  
  <!-- ุตู 2 -->
  <rect x="70" y="410" width="860" height="50" fill="#ffffff" stroke="#e0e0e0" stroke-width="1" rx="4"/>
  <rect x="80" y="420" width="90" height="25" fill="#e3f2fd" stroke="#1976d2" stroke-width="1" rx="4"/>
  <text x="125" y="438" font-family="Arial" font-size="10" font-weight="bold" text-anchor="middle" fill="#1976d2">#BO-1251</text>
  
  <text x="190" y="435" font-family="Arial" font-size="10" fill="#333">ุณุงุฑุฉ ุงูุฃุญูุฏ</text>
  <text x="190" y="450" font-family="Arial" font-size="9" fill="#666">0559876543</text>
  
  <text x="310" y="435" font-family="Arial" font-size="10" fill="#333">ุจุงูุณุงุนุฉ - ุฌุฏุฉ</text>
  <text x="310" y="450" font-family="Arial" font-size="9" fill="#666">4 ุณุงุนุงุช</text>
  
  <text x="520" y="435" font-family="Arial" font-size="10" fill="#ff9800">ุจุนุฏ ุณุงุนุฉ</text>
  <text x="520" y="450" font-family="Arial" font-size="9" fill="#f57c00">โฐ 11:00 ุต</text>
  
  <rect x="640" y="425" width="70" height="20" fill="#e8f5e9" stroke="#66bb6a" stroke-width="1" rx="4"/>
  <text x="675" y="439" font-family="Arial" font-size="9" text-anchor="middle" fill="#388e3c">SUV</text>
  
  <rect x="740" y="425" width="50" height="20" fill="#4caf50" stroke="#2e7d32" stroke-width="1" rx="4"/>
  <text x="765" y="439" font-family="Arial" font-size="9" font-weight="bold" text-anchor="middle" fill="#fff">8</text>
  
  <rect x="810" y="422" width="100" height="28" fill="#FF8C00" stroke="#E67E00" stroke-width="2" rx="4"/>
  <text x="860" y="442" font-family="Arial" font-size="10" font-weight="bold" text-anchor="middle" fill="#fff">๐ ุฑุจุท</text>
  
  <!-- ุตู 3 -->
  <rect x="70" y="470" width="860" height="50" fill="#ffffff" stroke="#e0e0e0" stroke-width="1" rx="4"/>
  <rect x="80" y="480" width="90" height="25" fill="#e3f2fd" stroke="#1976d2" stroke-width="1" rx="4"/>
  <text x="125" y="498" font-family="Arial" font-size="10" font-weight="bold" text-anchor="middle" fill="#1976d2">#BO-1252</text>
  
  <text x="190" y="495" font-family="Arial" font-size="10" fill="#333">ุฎุงูุฏ ูุญูุฏ</text>
  <text x="190" y="510" font-family="Arial" font-size="9" fill="#666">0557654321</text>
  
  <text x="310" y="495" font-family="Arial" font-size="10" fill="#333">ููู ูุงูู - ููุฉ</text>
  <text x="310" y="510" font-family="Arial" font-size="9" fill="#666">12 ุณุงุนุฉ</text>
  
  <text x="520" y="495" font-family="Arial" font-size="10" fill="#2196f3">ุจุนุฏ ุณุงุนุชูู</text>
  <text x="520" y="510" font-family="Arial" font-size="9" fill="#1976d2">โฐ 12:00 ู</text>
  
  <rect x="640" y="485" width="70" height="20" fill="#f3e5f5" stroke="#9c27b0" stroke-width="1" rx="4"/>
  <text x="675" y="499" font-family="Arial" font-size="9" text-anchor="middle" fill="#7b1fa2">ูุงูุฌุฑู</text>
  
  <rect x="740" y="485" width="50" height="20" fill="#ffa726" stroke="#f57c00" stroke-width="1" rx="4"/>
  <text x="765" y="499" font-family="Arial" font-size="9" font-weight="bold" text-anchor="middle" fill="#fff">3</text>
  
  <rect x="810" y="482" width="100" height="28" fill="#FF8C00" stroke="#E67E00" stroke-width="2" rx="4"/>
  <text x="860" y="502" font-family="Arial" font-size="10" font-weight="bold" text-anchor="middle" fill="#fff">๐ ุฑุจุท</text>
  
  <!-- ุตู 4 -->
  <rect x="70" y="530" width="860" height="50" fill="#fff8e1" stroke="#ffa000" stroke-width="1" rx="4"/>
  <rect x="80" y="540" width="90" height="25" fill="#ff9800" stroke="#f57c00" stroke-width="1" rx="4"/>
  <text x="125" y="558" font-family="Arial" font-size="10" font-weight="bold" text-anchor="middle" fill="#fff">#BO-1253</text>
  
  <text x="190" y="555" font-family="Arial" font-size="10" fill="#333">ูุงุทูุฉ ุนูู</text>
  <text x="190" y="570" font-family="Arial" font-size="9" fill="#666">0503456789</text>
  
  <text x="310" y="555" font-family="Arial" font-size="10" fill="#333">ุชูุตูู - ุงูุฏูุงู</text>
  <text x="310" y="570" font-family="Arial" font-size="9" fill="#666">ุงููุทุงุฑ โ ุงูุฎุจุฑ</text>
  
  <text x="520" y="555" font-family="Arial" font-size="10" fill="#ff9800">ุจุนุฏ 30 ุฏูููุฉ</text>
  <text x="520" y="570" font-family="Arial" font-size="9" fill="#f57c00">โฐ 10:30 ุต</text>
  
  <rect x="640" y="545" width="70" height="20" fill="#fff3e0" stroke="#f57c00" stroke-width="1" rx="4"/>
  <text x="675" y="559" font-family="Arial" font-size="9" text-anchor="middle" fill="#f57c00">ุณูุฏุงู</text>
  
  <rect x="740" y="545" width="50" height="20" fill="#4caf50" stroke="#2e7d32" stroke-width="1" rx="4"/>
  <text x="765" y="559" font-family="Arial" font-size="9" font-weight="bold" text-anchor="middle" fill="#fff">15</text>
  
  <rect x="810" y="542" width="100" height="28" fill="#FF8C00" stroke="#E67E00" stroke-width="2" rx="4"/>
  <text x="860" y="562" font-family="Arial" font-size="10" font-weight="bold" text-anchor="middle" fill="#fff">๐ ุฑุจุท</text>
  
  <!-- ูุงูุฐุฉ ุงุฎุชูุงุฑ ุงูุณุงุฆู Modal -->
  <rect x="50" y="730" width="900" height="430" fill="#ffffff" stroke="#e0e0e0" stroke-width="2" rx="8"/>
  <rect x="50" y="730" width="900" height="50" fill="#1976d2" stroke="#0d47a1" stroke-width="2" rx="8"/>
  <text x="80" y="761" font-family="Arial" font-size="15" font-weight="bold" fill="#fff">๐ ุงุฎุชูุงุฑ ุงูุณุงุฆู ููุญุฌุฒ #BO-1250</text>
  <circle cx="920" cy="755" r="15" fill="#f44336" stroke="#c62828" stroke-width="2"/>
  <text x="920" y="762" font-family="Arial" font-size="14" font-weight="bold" text-anchor="middle" fill="#fff">โ</text>
  
  <text x="80" y="810" font-family="Arial" font-size="13" fill="#666">ุงูุณูุงุฑุงุช ุงููุชุงุญุฉ ูู ูุฆุฉ ุณูุฏุงู (12 ุณูุงุฑุฉ)</text>
  
  <!-- ุจุทุงูุฉ ุณุงุฆู 1 -->
  <rect x="70" y="830" width="270" height="300" fill="#ffffff" stroke="#4caf50" stroke-width="3" rx="8"/>
  <circle cx="205" cy="880" r="35" fill="#e0e0e0" stroke="#bdbdbd" stroke-width="2"/>
  <text x="205" y="895" font-family="Arial" font-size="28" text-anchor="middle" fill="#757575">๐ค</text>
  
  <text x="205" y="935" font-family="Arial" font-size="13" font-weight="bold" text-anchor="middle" fill="#333">ูุญูุฏ ุฃุญูุฏ ุงูุณุงูู</text>
  <text x="205" y="955" font-family="Arial" font-size="11" text-anchor="middle" fill="#666">๐ฑ 0501234567</text>
  <text x="205" y="975" font-family="Arial" font-size="11" text-anchor="middle" fill="#ff9800">โญ 4.9 (245 ุฑุญูุฉ)</text>
  
  <rect x="90" y="990" width="230" height="50" fill="#f5f5f5" stroke="#e0e0e0" stroke-width="1" rx="4"/>
  <text x="205" y="1010" font-family="Arial" font-size="11" font-weight="bold" text-anchor="middle" fill="#333">ุชูููุชุง ูุงูุฑู 2024</text>
  <text x="205" y="1027" font-family="Arial" font-size="10" text-anchor="middle" fill="#666">โช ุฃุจูุถ โข ๐ข ุฃ ุจ ุฌ 1234</text>
  
  <rect x="90" y="1050" width="230" height="25" fill="#4caf50" stroke="#2e7d32" stroke-width="1" rx="4"/>
  <text x="205" y="1068" font-family="Arial" font-size="11" font-weight="bold" text-anchor="middle" fill="#fff">โ ูุชุงุญ ุงูุขู</text>
  
  <rect x="90" y="1085" width="230" height="35" fill="#FF8C00" stroke="#E67E00" stroke-width="2" rx="6"/>
  <text x="205" y="1109" font-family="Arial" font-size="13" font-weight="bold" text-anchor="middle" fill="#fff">โ ุชุญุฏูุฏ ูุฐุง ุงูุณุงุฆู</text>
  
  <!-- ุจุทุงูุฉ ุณุงุฆู 2 -->
  <rect x="360" y="830" width="270" height="300" fill="#ffffff" stroke="#e0e0e0" stroke-width="1" rx="8"/>
  <circle cx="495" cy="880" r="35" fill="#e0e0e0" stroke="#bdbdbd" stroke-width="2"/>
  <text x="495" y="895" font-family="Arial" font-size="28" text-anchor="middle" fill="#757575">๐ค</text>
  
  <text x="495" y="935" font-family="Arial" font-size="13" font-weight="bold" text-anchor="middle" fill="#333">ุฎุงูุฏ ุนุจุฏุงููู ุงููุญุทุงูู</text>
  <text x="495" y="955" font-family="Arial" font-size="11" text-anchor="middle" fill="#666">๐ฑ 0559876543</text>
  <text x="495" y="975" font-family="Arial" font-size="11" text-anchor="middle" fill="#ff9800">โญ 4.8 (189 ุฑุญูุฉ)</text>
  
  <rect x="380" y="990" width="230" height="50" fill="#f5f5f5" stroke="#e0e0e0" stroke-width="1" rx="4"/>
  <text x="495" y="1010" font-family="Arial" font-size="11" font-weight="bold" text-anchor="middle" fill="#333">ููููุฏุงู ุฅููุชุฑุง 2023</text>
  <text x="495" y="1027" font-family="Arial" font-size="10" text-anchor="middle" fill="#666">โซ ุฃุณูุฏ โข ๐ข ุฏ ู ู 5678</text>
  
  <rect x="380" y="1050" width="230" height="25" fill="#4caf50" stroke="#2e7d32" stroke-width="1" rx="4"/>
  <text x="495" y="1068" font-family="Arial" font-size="11" font-weight="bold" text-anchor="middle" fill="#fff">โ ูุชุงุญ ุงูุขู</text>
  
  <rect x="380" y="1085" width="230" height="35" fill="#2196f3" stroke="#1565c0" stroke-width="2" rx="6"/>
  <text x="495" y="1109" font-family="Arial" font-size="13" font-weight="bold" text-anchor="middle" fill="#fff">ุชุญุฏูุฏ</text>
  
  <!-- ุจุทุงูุฉ ุณุงุฆู 3 -->
  <rect x="650" y="830" width="270" height="300" fill="#ffffff" stroke="#e0e0e0" stroke-width="1" rx="8"/>
  <circle cx="785" cy="880" r="35" fill="#e0e0e0" stroke="#bdbdbd" stroke-width="2"/>
  <text x="785" y="895" font-family="Arial" font-size="28" text-anchor="middle" fill="#757575">๐ค</text>
  
  <text x="785" y="935" font-family="Arial" font-size="13" font-weight="bold" text-anchor="middle" fill="#333">ุนุจุฏุงูุฑุญูู ุตุงูุญ</text>
  <text x="785" y="955" font-family="Arial" font-size="11" text-anchor="middle" fill="#666">๐ฑ 0557654321</text>
  <text x="785" y="975" font-family="Arial" font-size="11" text-anchor="middle" fill="#ff9800">โญ 4.7 (156 ุฑุญูุฉ)</text>
  
  <rect x="670" y="990" width="230" height="50" fill="#f5f5f5" stroke="#e0e0e0" stroke-width="1" rx="4"/>
  <text x="785" y="1010" font-family="Arial" font-size="11" font-weight="bold" text-anchor="middle" fill="#333">ููุณุงู ุฃูุชููุง 2024</text>
  <text x="785" y="1027" font-family="Arial" font-size="10" text-anchor="middle" fill="#666">๐ต ุฃุฒุฑู โข ๐ข ุฒ ุญ ุท 9012</text>
  
  <rect x="670" y="1050" width="230" height="25" fill="#4caf50" stroke="#2e7d32" stroke-width="1" rx="4"/>
  <text x="785" y="1068" font-family="Arial" font-size="11" font-weight="bold" text-anchor="middle" fill="#fff">โ ูุชุงุญ ุงูุขู</text>
  
  <rect x="670" y="1085" width="230" height="35" fill="#2196f3" stroke="#1565c0" stroke-width="2" rx="6"/>
  <text x="785" y="1109" font-family="Arial" font-size="13" font-weight="bold" text-anchor="middle" fill="#fff">ุชุญุฏูุฏ</text>
</svg>