<svg viewBox="0 0 800 1100" xmlns="http://www.w3.org/2000/svg">
  <!-- ุงูุฎูููุฉ ุงูุฑุฆูุณูุฉ -->
  <rect x="50" y="20" width="700" height="1060" fill="#f5f5f5" stroke="#cccccc" stroke-width="2" rx="10"/>
  
  <!-- ุนููุงู ุงูุดุงุดุฉ -->
  <text x="400" y="50" font-family="Arial" font-size="20" font-weight="bold" text-anchor="middle" fill="#333">ุดุงุดุฉ ุงูุญุฌุฒ</text>
  
  <!-- ุฑุฃุณ ุงูุตูุญุฉ -->
  <rect x="70" y="80" width="660" height="90" fill="#ffffff" stroke="#e0e0e0" stroke-width="1" rx="8"/>
  <rect x="90" y="100" width="120" height="50" fill="#f5f5f5" stroke="#ddd" stroke-width="1" rx="4"/>
  <text x="150" y="130" font-family="Arial" font-size="10" text-anchor="middle" fill="#aaa">ุตูุฑุฉ ุงูุณูุงุฑุฉ</text>
  <text x="250" y="125" font-family="Arial" font-size="14" font-weight="bold" fill="#333">ุชูููุชุง ูุงูุฑู 2024</text>
  <text x="250" y="145" font-family="Arial" font-size="11" fill="#666">ุณูุฏุงู โข 4 ุฑูุงุจ</text>
  
  <!-- ูุคุดุฑ ุงูุชูุฏู -->
  <rect x="70" y="190" width="660" height="60" fill="#fff8e1" stroke="#ffb300" stroke-width="2" rx="8"/>
  <text x="400" y="215" font-family="Arial" font-size="12" font-weight="bold" text-anchor="middle" fill="#f57c00">ุฎุทูุงุช ุงูุญุฌุฒ</text>
  <g>
    <circle cx="200" cy="235" r="12" fill="#FF8C00" stroke="#E67E00" stroke-width="2"/>
    <text x="200" y="240" font-family="Arial" font-size="10" font-weight="bold" text-anchor="middle" fill="#fff">1</text>
    <line x1="212" y1="235" x2="288" y2="235" stroke="#ffb300" stroke-width="2"/>
    <circle cx="300" cy="235" r="12" fill="#fff" stroke="#ffb300" stroke-width="2"/>
    <text x="300" y="240" font-family="Arial" font-size="10" text-anchor="middle" fill="#ffb300">2</text>
    <line x1="312" y1="235" x2="388" y2="235" stroke="#e0e0e0" stroke-width="2"/>
    <circle cx="400" cy="235" r="12" fill="#fff" stroke="#e0e0e0" stroke-width="2"/>
    <text x="400" y="240" font-family="Arial" font-size="10" text-anchor="middle" fill="#bdbdbd">3</text>
    <line x1="412" y1="235" x2="488" y2="235" stroke="#e0e0e0" stroke-width="2"/>
    <circle cx="500" cy="235" r="12" fill="#fff" stroke="#e0e0e0" stroke-width="2"/>
    <text x="500" y="240" font-family="Arial" font-size="10" text-anchor="middle" fill="#bdbdbd">4</text>
  </g>
  
  <!-- ูุณู ุงูููุทูุฉ -->
  <rect x="70" y="270" width="660" height="70" fill="#ffffff" stroke="#e0e0e0" stroke-width="1" rx="8"/>
  <text x="100" y="295" font-family="Arial" font-size="13" font-weight="bold" fill="#333">ุงุฎุชูุงุฑ ุงูููุทูุฉ</text>
  <rect x="90" y="305" width="620" height="25" fill="#fafafa" stroke="#bdbdbd" stroke-width="1" rx="4"/>
  <text x="400" y="323" font-family="Arial" font-size="11" text-anchor="middle" fill="#999">ุงุฎุชุฑ ุงูููุทูุฉ โผ</text>
  
  <!-- ูุณู ุงูุฎุฏูุฉ -->
  <rect x="70" y="360" width="660" height="230" fill="#ffffff" stroke="#e0e0e0" stroke-width="1" rx="8"/>
  <text x="100" y="385" font-family="Arial" font-size="13" font-weight="bold" fill="#333">ุงุฎุชูุงุฑ ููุน ุงูุฎุฏูุฉ</text>
  
  <!-- ุจุทุงูุงุช ุงูุฎุฏูุงุช -->
  <g>
    <!-- ุชูุตูู -->
    <rect x="90" y="400" width="140" height="170" fill="#e3f2fd" stroke="#1976d2" stroke-width="2" rx="8"/>
    <circle cx="160" cy="440" r="20" fill="#1976d2"/>
    <text x="160" y="445" font-family="Arial" font-size="16" text-anchor="middle" fill="#fff">๐</text>
    <text x="160" y="475" font-family="Arial" font-size="12" font-weight="bold" text-anchor="middle" fill="#1976d2">ุชูุตูู</text>
    <text x="160" y="495" font-family="Arial" font-size="9" text-anchor="middle" fill="#0d47a1">ูู ููุทุฉ ุฅูู ุฃุฎุฑู</text>
    <text x="160" y="515" font-family="Arial" font-size="10" font-weight="bold" text-anchor="middle" fill="#1976d2">ุญุณุจ ุงููุณุงูุฉ</text>
    
    <!-- ุจุงูุณุงุนุฉ -->
    <rect x="250" y="400" width="140" height="170" fill="#e8f5e9" stroke="#388e3c" stroke-width="2" rx="8"/>
    <circle cx="320" cy="440" r="20" fill="#388e3c"/>
    <text x="320" y="445" font-family="Arial" font-size="16" text-anchor="middle" fill="#fff">โฑ๏ธ</text>
    <text x="320" y="475" font-family="Arial" font-size="12" font-weight="bold" text-anchor="middle" fill="#388e3c">ุจุงูุณุงุนุฉ</text>
    <text x="320" y="495" font-family="Arial" font-size="9" text-anchor="middle" fill="#2e7d32">ุชุฃุฌูุฑ ุจุงูุณุงุนุฉ</text>
    <text x="320" y="515" font-family="Arial" font-size="10" font-weight="bold" text-anchor="middle" fill="#388e3c">ูู ุงูุณุนุฑ/ุณุงุนุฉ</text>
    
    <!-- 8 ุณุงุนุงุช -->
    <rect x="410" y="400" width="140" height="170" fill="#fff3e0" stroke="#f57c00" stroke-width="2" rx="8"/>
    <circle cx="480" cy="440" r="20" fill="#f57c00"/>
    <text x="480" y="445" font-family="Arial" font-size="16" text-anchor="middle" fill="#fff">๐</text>
    <text x="480" y="475" font-family="Arial" font-size="12" font-weight="bold" text-anchor="middle" fill="#f57c00">ุฌููุฉ 8 ุณุงุนุงุช</text>
    <text x="480" y="495" font-family="Arial" font-size="9" text-anchor="middle" fill="#e65100">ุฌููุฉ ุณูุงุญูุฉ</text>
    <text x="480" y="515" font-family="Arial" font-size="10" font-weight="bold" text-anchor="middle" fill="#f57c00">ุณุนุฑ ุซุงุจุช</text>
    
    <!-- ููู ูุงูู -->
    <rect x="570" y="400" width="140" height="170" fill="#f3e5f5" stroke="#7b1fa2" stroke-width="2" rx="8"/>
    <circle cx="640" cy="440" r="20" fill="#7b1fa2"/>
    <text x="640" y="445" font-family="Arial" font-size="16" text-anchor="middle" fill="#fff">๐</text>
    <text x="640" y="475" font-family="Arial" font-size="12" font-weight="bold" text-anchor="middle" fill="#7b1fa2">ููู ูุงูู</text>
    <text x="640" y="495" font-family="Arial" font-size="9" text-anchor="middle" fill="#4a148c">12 ุณุงุนุฉ</text>
    <text x="640" y="515" font-family="Arial" font-size="10" font-weight="bold" text-anchor="middle" fill="#7b1fa2">ุณุนุฑ ุซุงุจุช</text>
  </g>
  
  <!-- ูุณู ุงูุชูุงุตูู -->
  <rect x="70" y="610" width="660" height="350" fill="#ffffff" stroke="#e0e0e0" stroke-width="1" rx="8"/>
  <text x="100" y="635" font-family="Arial" font-size="13" font-weight="bold" fill="#333">ุชูุงุตูู ุงูุฑุญูุฉ</text>
  
  <!-- ูููุน ุงูุงูุทูุงู -->
  <rect x="90" y="650" width="280" height="40" fill="#fafafa" stroke="#bdbdbd" stroke-width="1" rx="4"/>
  <text x="105" y="673" font-family="Arial" font-size="11" fill="#666">๐ ูููุน ุงูุงูุทูุงู</text>
  
  <!-- ุงููุฌูุฉ -->
  <rect x="390" y="650" width="310" height="40" fill="#fafafa" stroke="#bdbdbd" stroke-width="1" rx="4"/>
  <text x="405" y="673" font-family="Arial" font-size="11" fill="#666">๐ฏ ุงููุฌูุฉ</text>
  
  <!-- ุงูุฎุฑูุทุฉ -->
  <rect x="90" y="710" width="610" height="140" fill="#e0f2f1" stroke="#00897b" stroke-width="1" rx="8"/>
  <text x="395" y="785" font-family="Arial" font-size="13" text-anchor="middle" fill="#00695c">๐บ๏ธ ุฎุฑูุทุฉ ุชูุงุนููุฉ</text>
  
  <!-- ุงูุชุงุฑูุฎ ูุงูููุช -->
  <rect x="90" y="870" width="610" height="40" fill="#fafafa" stroke="#bdbdbd" stroke-width="1" rx="4"/>
  <text x="105" y="893" font-family="Arial" font-size="11" fill="#666">๐ ุงุฎุชุฑ ุงูุชุงุฑูุฎ ูุงูููุช</text>
  
  <!-- ูุณู ุงูุฑุงูุจ -->
  <rect x="70" y="980" width="660" height="90" fill="#ffffff" stroke="#e0e0e0" stroke-width="1" rx="8"/>
  <text x="100" y="1005" font-family="Arial" font-size="13" font-weight="bold" fill="#333">ูุนูููุงุช ุงูุฑุงูุจ</text>
  <rect x="90" y="1015" width="295" height="30" fill="#fafafa" stroke="#bdbdbd" stroke-width="1" rx="4"/>
  <text x="105" y="1035" font-family="Arial" font-size="10" fill="#999">ุงูุงุณู</text>
  <rect x="405" y="1015" width="295" height="30" fill="#fafafa" stroke="#bdbdbd" stroke-width="1" rx="4"/>
  <text x="420" y="1035" font-family="Arial" font-size="10" fill="#999">ุฑูู ุงูุฌูุงู</text>
</svg>