<svg viewBox="0 0 1000 1400" xmlns="http://www.w3.org/2000/svg">
  <defs>
    <style>
      .title { font-family: Arial, sans-serif; font-size: 16px; font-weight: bold; fill: #333; }
      .subtitle { font-family: Arial, sans-serif; font-size: 12px; fill: #666; }
      .label { font-family: Arial, sans-serif; font-size: 10px; fill: #555; }
      .amount { font-family: Arial, sans-serif; font-size: 14px; font-weight: bold; }
    </style>
  </defs>
  
  <!-- ุงูุฎูููุฉ -->
  <rect width="1000" height="1400" fill="#f5f5f5"/>
  
  <!-- ุงูุญุงููุฉ ุงูุฑุฆูุณูุฉ -->
  <rect x="100" y="50" width="800" height="1300" rx="8" fill="#fff" stroke="#ccc" stroke-width="2"/>
  <text x="500" y="30" class="title" text-anchor="middle">ูุงูุฐุฉ ุงูุฅููุงู ุงููุญุงุณุจู</text>
  
  <!-- ุฑุฃุณ ุงููุงูุฐุฉ -->
  <rect x="120" y="80" width="760" height="70" rx="4" fill="#1a237e" stroke="#0d47a1" stroke-width="2"/>
  <text x="500" y="110" style="fill: #fff; font-size: 18px; font-weight: bold;" text-anchor="middle">ุฅููุงู ุงูุญุฌุฒ #12345</text>
  <text x="500" y="135" style="fill: #fff; font-size: 12px;" text-anchor="middle">ุงูุญุงูุฉ: ุฌุงูุฒ ููุฅููุงู</text>
  
  <!-- ููุฎุต ุงูุญุฌุฒ -->
  <rect x="120" y="170" width="760" height="80" rx="4" fill="#e3f2fd" stroke="#1976d2" stroke-width="2"/>
  <text x="140" y="195" class="subtitle">ููุฎุต ุงูุญุฌุฒ</text>
  <text x="140" y="215" class="label">ุงูุชุงุฑูุฎ: 2025/11/15 | ุงูููุช: 10:00 ุตุจุงุญุงู</text>
  <text x="140" y="235" class="label">ุงูุฎุฏูุฉ: ุชูุตูู ูู ุงูุฑูุงุถ ุฅูู ุงููุทุงุฑ (35 ูู)</text>
  
  <!-- ุงูุนููู ูุงูุณุงุฆู -->
  <rect x="120" y="270" width="760" height="80" rx="4" fill="#fff" stroke="#e0e0e0" stroke-width="2"/>
  <text x="140" y="295" class="subtitle">ุจูุงูุงุช ุงูุฃุทุฑุงู</text>
  <text x="140" y="315" class="label">ุงูุนููู: ุฃุญูุฏ ุงููุงููู | 0501234567</text>
  <text x="140" y="335" class="label">ุงูุณุงุฆู: ูุญูุฏ ุงูุนุชูุจู | ุณูุฏุงู ูุงูุฑู 2023</text>
  
  <!-- ุชูุงุตูู ุงูุฎุฏูุงุช -->
  <rect x="120" y="370" width="760" height="120" rx="4" fill="#fff" stroke="#e0e0e0" stroke-width="2"/>
  <text x="140" y="395" class="subtitle">ุชูุงุตูู ุงูุฎุฏูุงุช ุงููููุฐุฉ</text>
  <rect x="140" y="410" width="720" height="25" rx="2" fill="#f5f5f5"/>
  <text x="160" y="427" class="label">ุงูุฎุฏูุฉ: ุชูุตูู</text>
  <text x="500" y="427" class="label">ุงููุณุงูุฉ: 35 ูู</text>
  <text x="650" y="427" class="label">ุงููุจูุบ: 150 ุฑูุงู</text>
  <rect x="140" y="445" width="720" height="25" rx="2" fill="#fff"/>
  <text x="160" y="462" class="label">ุฑุณูู ุฅุถุงููุฉ</text>
  <text x="500" y="462" class="label">-</text>
  <text x="650" y="462" class="label">20 ุฑูุงู</text>
  
  <!-- ูุณู ุงูุชุญูู ูู ุงูุฏูุน -->
  <rect x="120" y="510" width="760" height="180" rx="4" fill="#fff8e1" stroke="#ffa000" stroke-width="2"/>
  <text x="140" y="535" class="title">ูุณู ุงูุชุญูู ูู ุงูุฏูุน</text>
  
  <rect x="140" y="550" width="720" height="40" rx="4" fill="#e8f5e9" stroke="#66bb6a" stroke-width="1"/>
  <text x="160" y="575" class="subtitle">ุญุงูุฉ ุงูุฏูุน: โ ูุคูุฏ</text>
  
  <rect x="140" y="600" width="720" height="40" rx="4" fill="#fff" stroke="#e0e0e0" stroke-width="1"/>
  <text x="160" y="625" class="label">ุทุฑููุฉ ุงูุฏูุน: ุจุทุงูุฉ ุงุฆุชูุงู</text>
  
  <rect x="140" y="650" width="720" height="40" rx="4" fill="#fafafa" stroke="#bdbdbd" stroke-width="1"/>
  <text x="160" y="675" class="label">ุฅุซุจุงุช ุงูุฏูุน: [ุนุฑุถ ุงููุณุชูุฏ] ๐</text>
  
  <!-- ูุณู ุงูุฎุตููุงุช -->
  <rect x="120" y="710" width="760" height="150" rx="4" fill="#e8f5e9" stroke="#66bb6a" stroke-width="2"/>
  <text x="140" y="735" class="title">ูุณู ุงูุฎุตููุงุช</text>
  
  <rect x="140" y="750" width="720" height="30" rx="4" fill="#fff" stroke="#e0e0e0" stroke-width="1"/>
  <text x="160" y="770" class="label">ุฎุตู ุงูุนููู: 5%</text>
  <text x="700" y="770" class="label">-8.50 ุฑูุงู</text>
  
  <rect x="140" y="790" width="720" height="30" rx="4" fill="#fff" stroke="#e0e0e0" stroke-width="1"/>
  <text x="160" y="810" class="label">ุฎุตู ุงูุดุฑูุฉ: 0%</text>
  <text x="700" y="810" class="label">0 ุฑูุงู</text>
  
  <rect x="140" y="830" width="720" height="30" rx="4" fill="#fff" stroke="#e0e0e0" stroke-width="1"/>
  <text x="160" y="850" class="label">ุฎุตููุงุช ุฎุงุตุฉ: 0</text>
  <text x="700" y="850" class="label">0 ุฑูุงู</text>
  
  <!-- ูุณู ุงูุนูููุงุช -->
  <rect x="120" y="880" width="760" height="130" rx="4" fill="#fff3e0" stroke="#ff6f00" stroke-width="2"/>
  <text x="140" y="905" class="title">ูุณู ุงูุนูููุงุช</text>
  
  <rect x="140" y="920" width="720" height="30" rx="4" fill="#fff" stroke="#e0e0e0" stroke-width="1"/>
  <text x="160" y="940" class="label">ูุณุจุฉ ุงูููุฑุฏ: 70%</text>
  <text x="700" y="940" class="label">115.15 ุฑูุงู</text>
  
  <rect x="140" y="960" width="345" height="40" rx="4" fill="#e8f5e9" stroke="#66bb6a" stroke-width="1"/>
  <text x="312" y="985" class="amount" text-anchor="middle" fill="#2e7d32">ูุณุชุญู ุงูููุฑุฏ</text>
  <text x="312" y="1000" style="font-size: 10px; fill: #2e7d32;" text-anchor="middle">115.15 ุฑูุงู</text>
  
  <rect x="505" y="960" width="355" height="40" rx="4" fill="#c8e6c9" stroke="#388e3c" stroke-width="1"/>
  <text x="682" y="985" class="amount" text-anchor="middle" fill="#1b5e20">ุตุงูู ุฑุจุญ ุงูุดุฑูุฉ</text>
  <text x="682" y="1000" style="font-size: 10px; fill: #1b5e20;" text-anchor="middle">49.35 ุฑูุงู</text>
  
  <!-- ุงูููุฎุต ุงููุงูู ุงูููุงุฆู -->
  <rect x="120" y="1030" width="760" height="220" rx="4" fill="#f3e5f5" stroke="#7b1fa2" stroke-width="2"/>
  <text x="140" y="1055" class="title">ุงูููุฎุต ุงููุงูู ุงูููุงุฆู</text>
  
  <rect x="140" y="1070" width="720" height="25" rx="2" fill="#fff" stroke="#e0e0e0" stroke-width="1"/>
  <text x="160" y="1087" class="label">ุงููุจูุบ ุงูุฅุฌูุงูู</text>
  <text x="700" y="1087" class="label">170.00 ุฑูุงู</text>
  
  <rect x="140" y="1105" width="720" height="25" rx="2" fill="#ffcdd2" stroke="#e57373" stroke-width="1"/>
  <text x="160" y="1122" class="label">ุฅุฌูุงูู ุงูุฎุตููุงุช</text>
  <text x="700" y="1122" class="label">-8.50 ุฑูุงู</text>
  
  <rect x="140" y="1140" width="720" height="25" rx="2" fill="#fff" stroke="#e0e0e0" stroke-width="1"/>
  <text x="160" y="1157" class="label">ุงููุจูุบ ุจุนุฏ ุงูุฎุตู</text>
  <text x="700" y="1157" class="label">161.50 ุฑูุงู</text>
  
  <rect x="140" y="1175" width="720" height="25" rx="2" fill="#fff" stroke="#e0e0e0" stroke-width="1"/>
  <text x="160" y="1192" class="label">ุถุฑูุจุฉ ุงููููุฉ ุงููุถุงูุฉ (15%)</text>
  <text x="700" y="1192" class="label">+24.23 ุฑูุงู</text>
  
  <rect x="140" y="1210" width="720" height="35" rx="4" fill="#ffecb3" stroke="#ff6f00" stroke-width="2"/>
  <text x="160" y="1232" class="amount" fill="#e65100">ุงููุจูุบ ุงูููุงุฆู ููุชุฃููุฏ</text>
  <text x="700" y="1232" class="amount" fill="#e65100">185.73 ุฑูุงู</text>
  
  <!-- ููุงุญุธุงุช ุงูุฅููุงู -->
  <rect x="120" y="1270" width="760" height="60" rx="4" fill="#fafafa" stroke="#bdbdbd" stroke-width="1"/>
  <text x="140" y="1290" class="label">ููุงุญุธุงุช ุงูุฅููุงู (ุงุฎุชูุงุฑู):</text>
  <rect x="140" y="1300" width="720" height="25" rx="2" fill="#fff" stroke="#bdbdbd" stroke-width="1"/>
  
  <!-- ุฃุฒุฑุงุฑ ุงูุฅุฌุฑุงุก -->
  <rect x="120" y="1350" width="360" height="50" rx="6" fill="#4caf50" stroke="#2e7d32" stroke-width="2"/>
  <text x="300" y="1380" style="fill: #fff; font-size: 16px; font-weight: bold;" text-anchor="middle">โ ุชุฃููุฏ ุงูุฅููุงู</text>
  
  <rect x="500" y="1350" width="380" height="50" rx="6" fill="#f44336" stroke="#c62828" stroke-width="2"/>
  <text x="690" y="1380" style="fill: #fff; font-size: 16px; font-weight: bold;" text-anchor="middle">โ ุฅูุบุงุก</text>
</svg>